<?xml version="1.0" encoding="UTF-8" standalone="no"?>
<!DOCTYPE svg PUBLIC "-//W3C//DTD SVG 1.1//EN" "http://www.w3.org/Graphics/SVG/1.1/DTD/svg11.dtd">
<svg version="1.1" xmlns="http://www.w3.org/2000/svg" xmlns:xlink="http://www.w3.org/1999/xlink" preserveAspectRatio="xMidYMid meet" viewBox="0 0 640 640" width="640" height="640"><defs><path d="M249.13 198.57L249.13 317.88C200.45 317.88 173.41 317.88 168 317.88C167.79 319.11 167.59 320.33 167.35 321.57C172.81 321.57 200.06 321.57 249.13 321.57C249.13 379.29 249.13 411.35 249.13 417.77C248.99 417.77 248.85 417.66 248.72 417.61C245.27 416.24 242.51 415 241.82 414.71C241.33 414.48 240.85 414.25 240.35 414.03C236.9 412.4 234.14 410.93 233.45 410.58C232.64 410.16 231.84 409.72 231.06 409.27C218.29 402.15 206.68 393.11 196.64 382.48C196.34 382.2 196.07 381.89 195.78 381.62C194.38 380.1 193.01 378.57 191.68 377C191.18 376.42 190.7 375.83 190.21 375.27C188.64 373.36 187.12 371.37 185.66 369.38C185.43 369.08 185.22 368.79 185.01 368.52C179 360.21 174.02 351.2 170.17 341.7C170.05 341.41 169.94 341.1 169.83 340.83C168.64 337.82 167.56 334.75 166.63 331.63C166.23 330.33 165.85 329.04 165.52 327.69C165.4 327.3 165.3 326.91 165.2 326.52C160.35 307.41 159.79 287.56 159.79 267.8C159.79 264.35 159.79 261.59 159.79 260.9C159.89 248.8 160.05 239.14 160.08 236.73C160.14 233.62 160.19 231.11 160.2 230.49C160.39 222.56 160.67 216.19 160.72 214.6C160.77 213.14 160.84 211.66 160.92 210.2C160.97 208.94 161.04 207.92 161.05 207.67C161.2 204.62 161.39 201.58 161.6 198.57L249.13 198.57Z" id="b640MgFfr"></path><path d="M249.13 65.73C220.32 65.73 204.31 65.73 201.11 65.73C208.92 53.52 217.45 41.79 226.65 30.59C233.79 21.83 241.31 13.29 249.13 5.07C249.13 13.15 249.13 33.38 249.13 65.73Z" id="b28ctaA8KY"></path><path d="M249.13 69.41L249.13 194.88C196.78 194.88 167.69 194.88 161.88 194.88C161.88 194.52 161.93 194.15 161.96 193.78C162.04 192.79 162.12 191.81 162.21 190.82C162.29 189.66 162.4 188.5 162.52 187.37C162.63 186.23 162.74 184.85 162.88 183.6C163.02 182.35 163.13 181.08 163.27 179.83C163.4 178.58 163.54 177.33 163.7 176.09C163.85 174.84 163.99 173.58 164.16 172.34C164.29 171.32 164.42 170.28 164.57 169.25C164.77 167.79 164.97 166.33 165.19 164.88C165.19 164.66 165.26 164.44 165.29 164.23C166.87 153.62 169.01 143.11 171.71 132.73C174.54 121.84 178.16 111.18 182.53 100.82C187.18 89.96 192.62 79.46 198.82 69.41C205.53 69.41 222.29 69.41 249.13 69.41Z" id="a357okaqo"></path><path d="M249.13 132.7L249.13 194.88C196.78 194.88 167.69 194.88 161.88 194.88C161.88 194.52 161.93 194.15 161.96 193.78C162.04 192.79 162.12 191.81 162.21 190.82C162.29 189.66 162.4 188.5 162.52 187.37C162.63 186.23 162.74 184.85 162.88 183.6C163.02 182.35 163.13 181.08 163.27 179.83C163.4 178.58 163.54 177.33 163.7 176.09C163.85 174.84 163.99 173.58 164.16 172.34C164.29 171.32 164.42 170.28 164.57 169.25C164.77 167.79 164.97 166.33 165.19 164.88C165.19 164.66 165.26 164.44 165.29 164.23C166.87 153.62 169.01 143.11 171.71 132.73C182.03 132.73 207.84 132.72 249.13 132.7Z" id="a7BKmkImj"></path><path d="M249.13 198.57L249.13 317.88C200.45 317.88 173.41 317.88 168 317.88C167.79 319.11 167.59 320.33 167.35 321.57C172.81 321.57 200.06 321.57 249.13 321.57C249.13 379.29 249.13 411.35 249.13 417.77C248.99 417.77 248.85 417.66 248.72 417.61C245.27 416.24 242.51 415 241.82 414.71C241.33 414.48 240.85 414.25 240.35 414.03C236.9 412.4 234.14 410.93 233.45 410.58C232.64 410.16 231.84 409.72 231.06 409.27C218.29 402.15 206.68 393.11 196.64 382.48C196.34 382.2 196.07 381.89 195.78 381.62C194.38 380.1 193.01 378.57 191.68 377C191.18 376.42 190.7 375.83 190.21 375.27C188.64 373.36 187.12 371.37 185.66 369.38C185.43 369.08 185.22 368.79 185.01 368.52C179 360.21 174.02 351.2 170.17 341.7C170.05 341.41 169.94 341.1 169.83 340.83C168.64 337.82 167.56 334.75 166.63 331.63C166.23 330.33 165.85 329.04 165.52 327.69C165.4 327.3 165.3 326.91 165.2 326.52C160.35 307.41 159.79 287.56 159.79 267.8C159.79 264.35 159.79 261.59 159.79 260.9C159.89 248.8 160.05 239.14 160.08 236.73C160.14 233.62 160.19 231.11 160.2 230.49C160.39 222.56 160.67 216.19 160.72 214.6C160.77 213.14 160.84 211.66 160.92 210.2C160.97 208.94 161.04 207.92 161.05 207.67C161.2 204.62 161.39 201.58 161.6 198.57L249.13 198.57Z" id="b1wMzExir"></path><path d="M335.84 194.88L270.02 194.88L270.02 87.38L279.41 87.38L279.41 50.98L317.92 50.98L317.92 87.38L335.84 87.38L335.84 87.38L335.84 194.88Z" id="h2FtYJNAnX"></path><path d="M335.83 198.56C335.83 198.56 335.83 198.56 335.83 198.56C335.83 270.14 335.83 309.91 335.83 317.87C335.83 317.87 335.83 317.87 335.83 317.87C296.35 317.87 274.41 317.87 270.02 317.87C270.02 317.87 270.02 317.87 270.02 317.87C270.02 246.28 270.02 206.51 270.02 198.56C270.02 198.56 270.02 198.56 270.02 198.56C309.51 198.56 331.44 198.56 335.83 198.56Z" id="e1iztR0E4Z"></path><path d="M270.03 321.57L335.84 321.57C335.84 381.08 335.84 414.14 335.84 420.75C328.08 422.99 320.16 424.67 312.16 425.78C311.51 425.87 310.86 425.95 310.21 426.02C309.24 426.13 308.28 426.24 307.32 426.32C307.13 426.34 306.17 426.42 304.44 426.56L304.14 426.56L302.87 426.62C302.6 426.62 302.46 426.62 302.43 426.62C301.91 426.62 301.4 426.68 300.88 426.69C300.88 426.69 300.84 426.69 300.84 426.69C300.1 426.69 299.36 426.75 298.62 426.76C298.53 426.76 297.77 426.76 297.67 426.76C296.94 426.76 296.21 426.76 295.46 426.76C295.35 426.76 294.81 426.76 293.84 426.76C293.04 426.76 292.6 426.76 292.52 426.76C291.96 426.76 291.4 426.76 290.84 426.69C289.96 426.66 289.06 426.61 288.15 426.54L288.15 426.54C287.15 426.47 286.6 426.43 286.49 426.42C285.8 426.37 285.11 426.3 284.43 426.23C282.98 426.1 281.54 425.94 280.11 425.74L278.39 425.49C277.87 425.42 277.58 425.38 277.53 425.37C276.09 425.16 274.65 424.92 273.21 424.64C272.14 424.45 271.09 424.24 270.03 424.01C270.03 410.35 270.03 376.2 270.03 321.57Z" id="djro6pgsv"></path><path d="M312.22 95.84C312.22 95.84 312.22 95.84 312.22 95.84C312.22 110.56 312.22 118.73 312.22 120.37C312.22 120.37 312.22 120.37 312.22 120.37C297.51 120.37 289.33 120.37 287.7 120.37C287.7 120.37 287.7 120.37 287.7 120.37C287.7 105.65 287.7 97.48 287.7 95.84C287.7 95.84 287.7 95.84 287.7 95.84C302.41 95.84 310.59 95.84 312.22 95.84Z" id="c6One2QTg"></path><path d="M312.22 152.82C312.22 152.82 312.22 152.82 312.22 152.82C312.22 167.53 312.22 175.71 312.22 177.34C312.22 177.34 312.22 177.34 312.22 177.34C297.51 177.34 289.33 177.34 287.7 177.34C287.7 177.34 287.7 177.34 287.7 177.34C287.7 162.63 287.7 154.45 287.7 152.82C287.7 152.82 287.7 152.82 287.7 152.82C302.41 152.82 310.59 152.82 312.22 152.82Z" id="arEVBtKAN"></path><path d="M312.22 209.79C312.22 209.79 312.22 209.79 312.22 209.79C312.22 224.51 312.22 232.68 312.22 234.32C312.22 234.32 312.22 234.32 312.22 234.32C297.51 234.32 289.33 234.32 287.7 234.32C287.7 234.32 287.7 234.32 287.7 234.32C287.7 219.6 287.7 211.43 287.7 209.79C287.7 209.79 287.7 209.79 287.7 209.79C302.41 209.79 310.59 209.79 312.22 209.79Z" id="c3grmopDNB"></path><path d="M312.22 266.76C312.22 266.76 312.22 266.76 312.22 266.76C312.22 281.47 312.22 289.65 312.22 291.29C312.22 291.29 312.22 291.29 312.22 291.29C297.51 291.29 289.33 291.29 287.7 291.29C287.7 291.29 287.7 291.29 287.7 291.29C287.7 276.57 287.7 268.39 287.7 266.76C287.7 266.76 287.7 266.76 287.7 266.76C302.41 266.76 310.59 266.76 312.22 266.76Z" id="b8ZsCDYbz"></path><path d="M312.22 323.73C312.22 323.73 312.22 323.73 312.22 323.73C312.22 338.45 312.22 346.63 312.22 348.26C312.22 348.26 312.22 348.26 312.22 348.26C297.51 348.26 289.33 348.26 287.7 348.26C287.7 348.26 287.7 348.26 287.7 348.26C287.7 333.54 287.7 325.37 287.7 323.73C287.7 323.73 287.7 323.73 287.7 323.73C302.41 323.73 310.59 323.73 312.22 323.73Z" id="b3NXaPSEQ7"></path><path d="M312.22 380.71C312.22 380.71 312.22 380.71 312.22 380.71C312.22 395.42 312.22 403.6 312.22 405.24C312.22 405.24 312.22 405.24 312.22 405.24C297.51 405.24 289.33 405.24 287.7 405.24C287.7 405.24 287.7 405.24 287.7 405.24C287.7 390.52 287.7 382.34 287.7 380.71C287.7 380.71 287.7 380.71 287.7 380.71C302.41 380.71 310.59 380.71 312.22 380.71Z" id="f2O8ha0o43"></path><path d="M165.19 164.2L165.19 178.23L249.13 178.23L249.13 164.2L165.19 164.2ZM173.55 177.35L166.65 177.35L166.65 165.09L173.55 165.09L173.55 177.35ZM181.9 177.35L175 177.35L175 165.09L181.9 165.09L181.9 177.35ZM190.24 177.35L183.34 177.35L183.34 165.09L190.24 165.09L190.24 177.35ZM198.6 177.35L191.7 177.35L191.7 165.09L198.6 165.09L198.6 177.35ZM206.95 177.35L200.05 177.35L200.05 165.09L206.95 165.09L206.95 177.35ZM215.31 177.35L208.41 177.35L208.41 165.09L215.31 165.09L215.31 177.35ZM223.67 177.35L216.77 177.35L216.77 165.09L223.67 165.09L223.67 177.35ZM232.01 177.35L225.11 177.35L225.11 165.09L232.01 165.09L232.01 177.35ZM240.36 177.35L233.46 177.35L233.46 165.09L240.36 165.09L240.36 177.35ZM248.72 177.35L241.82 177.35L241.82 165.09L248.72 165.09L248.72 177.35Z" id="a1IcpP0pXT"></path><path d="M165.19 205.05L165.19 219.08L249.13 219.08L249.13 205.05L165.19 205.05ZM173.55 218.2L166.65 218.2L166.65 205.94L173.55 205.94L173.55 218.2ZM181.9 218.2L175 218.2L175 205.94L181.9 205.94L181.9 218.2ZM190.24 218.2L183.34 218.2L183.34 205.94L190.24 205.94L190.24 218.2ZM198.6 218.2L191.7 218.2L191.7 205.94L198.6 205.94L198.6 218.2ZM206.95 218.2L200.05 218.2L200.05 205.94L206.95 205.94L206.95 218.2ZM215.31 218.2L208.41 218.2L208.41 205.94L215.31 205.94L215.31 218.2ZM223.67 218.2L216.77 218.2L216.77 205.94L223.67 205.94L223.67 218.2ZM232.01 218.2L225.11 218.2L225.11 205.94L232.01 205.94L232.01 218.2ZM240.36 218.2L233.46 218.2L233.46 205.94L240.36 205.94L240.36 218.2ZM248.72 218.2L241.82 218.2L241.82 205.94L248.72 205.94L248.72 218.2Z" id="a3R7KemHSz"></path><path d="M165.19 245.9L165.19 259.93L249.13 259.93L249.13 245.9L165.19 245.9ZM173.55 259.04L166.65 259.04L166.65 246.77L173.55 246.77L173.55 259.04ZM181.9 259.04L175 259.04L175 246.77L181.9 246.77L181.9 259.04ZM190.24 259.04L183.34 259.04L183.34 246.77L190.24 246.77L190.24 259.04ZM198.6 259.04L191.7 259.04L191.7 246.77L198.6 246.77L198.6 259.04ZM206.95 259.04L200.05 259.04L200.05 246.77L206.95 246.77L206.95 259.04ZM215.31 259.04L208.41 259.04L208.41 246.77L215.31 246.77L215.31 259.04ZM223.67 259.04L216.77 259.04L216.77 246.77L223.67 246.77L223.67 259.04ZM232.01 259.04L225.11 259.04L225.11 246.77L232.01 246.77L232.01 259.04ZM240.36 259.04L233.46 259.04L233.46 246.77L240.36 246.77L240.36 259.04ZM248.72 259.04L241.82 259.04L241.82 246.77L248.72 246.77L248.72 259.04Z" id="d29jxN653r"></path><path d="M165.19 286.75L165.19 300.77L249.13 300.77L249.13 286.75L165.19 286.75ZM173.55 299.89L166.65 299.89L166.65 287.61L173.55 287.61L173.55 299.89ZM181.9 299.89L175 299.89L175 287.61L181.9 287.61L181.9 299.89ZM190.24 299.89L183.34 299.89L183.34 287.61L190.24 287.61L190.24 299.89ZM198.6 299.89L191.7 299.89L191.7 287.61L198.6 287.61L198.6 299.89ZM206.95 299.89L200.05 299.89L200.05 287.61L206.95 287.61L206.95 299.89ZM215.31 299.89L208.41 299.89L208.41 287.61L215.31 287.61L215.31 299.89ZM223.67 299.89L216.77 299.89L216.77 287.61L223.67 287.61L223.67 299.89ZM232.01 299.89L225.11 299.89L225.11 287.61L232.01 287.61L232.01 299.89ZM240.36 299.89L233.46 299.89L233.46 287.61L240.36 287.61L240.36 299.89ZM248.72 299.89L241.82 299.89L241.82 287.61L248.72 287.61L248.72 299.89Z" id="b3CrySKHr"></path><path d="M165.59 327.58C165.92 328.91 166.31 330.22 166.71 331.52C166.71 331.32 166.71 330.3 166.71 328.47L173.61 328.47L173.61 340.72C171.39 340.72 170.15 340.72 169.91 340.72C170.01 341.02 170.12 341.32 170.24 341.58C175.5 341.58 201.81 341.58 249.16 341.58L249.16 327.58C204.59 327.58 176.74 327.58 165.59 327.58ZM181.98 340.72L175.08 340.72L175.08 328.47L181.98 328.47L181.98 340.72ZM190.32 340.72L183.42 340.72L183.42 328.47L190.32 328.47L190.32 340.72ZM198.68 340.72L191.78 340.72L191.78 328.47L198.68 328.47L198.68 340.72ZM207.03 340.72L200.13 340.72L200.13 328.47L207.03 328.47L207.03 340.72ZM215.39 340.72L208.49 340.72L208.49 328.47L215.39 328.47L215.39 340.72ZM223.74 340.72L216.84 340.72L216.84 328.47L223.74 328.47L223.74 340.72ZM232.09 340.72L225.19 340.72L225.19 328.47L232.09 328.47L232.09 340.72ZM240.44 340.72L233.54 340.72L233.54 328.47L240.44 328.47L240.44 340.72ZM248.8 340.72L241.9 340.72L241.9 328.47L248.8 328.47L248.8 340.72Z" id="bjqsEFLRe"></path><path d="M185.04 368.42C185.26 368.7 185.47 369.01 185.68 369.29C185.99 369.29 187.51 369.29 190.24 369.29L190.24 375.18L191.72 376.9L191.72 369.25L198.62 369.25L198.62 381.62C196.92 381.62 195.97 381.62 195.78 381.62C196.06 381.91 196.32 382.21 196.64 382.48C200.14 382.48 217.63 382.48 249.11 382.48L249.11 368.42C214.94 368.42 193.58 368.42 185.04 368.42ZM206.99 381.62L200.09 381.62L200.09 369.3L206.99 369.3L206.99 381.62ZM215.35 381.62L208.45 381.62L208.45 369.3L215.35 369.3L215.35 381.62ZM223.71 381.62L216.81 381.62L216.81 369.3L223.71 369.3L223.71 381.62ZM232.06 381.62L225.16 381.62L225.16 369.3L232.06 369.3L232.06 381.62ZM240.41 381.62L233.51 381.62L233.51 369.3L240.41 369.3L240.41 381.62ZM248.76 381.62L241.86 381.62L241.86 369.3L248.76 369.3L248.76 381.62Z" id="gSsZxQf8z"></path><path d="M231.08 409.27C231.88 409.72 232.68 410.13 233.48 410.57C233.48 410.55 233.48 410.4 233.48 410.14L240.38 410.14C240.38 412.48 240.38 413.77 240.38 414.03C240.88 414.25 241.35 414.48 241.85 414.71C241.85 414.4 241.85 412.88 241.85 410.14L248.75 410.14C248.75 414.62 248.75 417.11 248.75 417.61C248.88 417.67 249.01 417.72 249.15 417.76C249.15 417.19 249.15 414.36 249.15 409.27C239.51 409.27 233.49 409.27 231.08 409.27Z" id="a7CtlSJMLf"></path><path d="M488.61 616.89C488.61 624.35 450.99 630.39 404.57 630.39C358.16 630.39 320.53 624.35 320.53 616.89C320.53 609.44 358.16 603.4 404.57 603.4C450.99 603.4 488.61 609.44 488.61 616.89Z" id="c9aRuTBSC"></path><path d="M501.2 259.76C499.91 258.49 483.52 235.32 483.52 235.32C483.52 235.32 482.66 232.73 481.26 229.37C481.71 228.79 482.05 228.13 482.26 227.43C482.33 227.13 482.39 226.83 482.42 226.52C482.42 226.43 482.49 226.35 482.51 226.26C482.81 225.09 482.78 223.86 482.43 222.7C482.33 223 482.21 223.29 482.08 223.56C481.75 222.56 481.32 221.59 480.78 220.68C478.61 216.94 475.5 213.78 473.22 210.14C469.76 204.47 468.38 197.77 469.33 191.2C469.33 191.53 469.33 191.88 469.33 192.21C469.41 190.91 469.59 189.61 469.85 188.33C470.21 186.87 470.69 185.45 471.29 184.07C473.34 179.37 476.66 175.27 478.68 170.56C479.35 168.97 479.87 167.31 480.21 165.61C480.92 162.78 481.18 159.86 480.98 156.95C480.98 157.64 480.87 158.33 480.76 159.01C480.55 152.01 477.72 145.34 472.84 140.32C465.79 133.24 455.67 130.49 446 129.04C441.93 128.56 438.05 127.08 434.7 124.72C430.98 122.32 426.18 121.74 421.83 122.27C416.84 122.81 412.19 125.1 408.73 128.74C404.13 133.8 402.14 140.96 396.78 145.22C393.53 147.8 389.4 149.01 385.62 150.77C381.83 152.53 378.25 155.08 377.03 158.86C377.03 158.86 377.03 158.81 377.03 158.78C377.03 158.8 377.03 158.87 377.03 159C377 159.08 376.99 159.13 376.98 159.14C375.72 163.61 378.16 168.15 379.42 172.61C380.74 177.22 380.83 182.1 380.9 186.87C380.99 192.7 381.08 198.54 380.98 204.37C380.94 206.67 380.86 208.99 380.69 211.27C378.65 211.89 376.67 212.69 374.77 213.65C372.83 214.91 365.61 222.72 365.61 222.72C364.66 226.32 359.95 244.32 351.47 276.73L351.66 276.94L351.47 277.68C351.9 277.58 352.14 277.52 352.19 277.51C354.19 279.67 360.16 285.81 366.62 289.64C366.68 290.7 367.16 299.17 367.22 300.23C367.22 300.23 367.94 310.85 377.72 315.24C377.94 318.93 378.64 333.88 375.4 339.81C373.16 344.14 372.11 348.98 372.35 353.85C372.35 353.85 373.48 362.84 372.2 367.56C371.45 370.72 371.39 374.01 372.03 377.19C372.03 377.19 372.03 377.19 372.03 377.19C372.03 377.19 372.03 378.23 372.03 380.03C372.03 389.59 372.14 420.24 372.03 423.71C371.87 427.81 372.03 488.39 372.03 488.39C372.03 488.39 371.23 518.68 368.66 526.88C366.09 535.08 366.74 562.24 366.74 562.24C366.74 562.24 365.12 594.59 370.82 600.97C370.82 601.26 370.77 601.55 370.76 601.84C370.76 601.96 370.76 602.11 370.76 602.24C370.7 604.7 371.17 607.31 373.28 608.11C377.6 609.77 383.3 614.74 384.37 616.16C385.45 617.58 391.72 621.13 399.9 620.18C405.02 619.6 410.18 619.37 415.33 619.47C415.33 619.47 415.33 619.47 415.33 619.47C415.33 619.47 418.55 618.89 417.51 614.88C417.51 614.88 417.51 614.88 417.51 614.88C417.51 614.88 417.51 614.88 417.51 614.88C416.84 612.37 414.32 608.53 412.53 606C412.85 606.09 413.17 606.16 413.47 606.22C413.49 606.22 413.6 606.24 413.78 606.28C413.93 606.28 414.01 606.28 414.03 606.28C414.16 606.29 414.29 606.29 414.42 606.28C414.44 606.28 414.58 606.28 414.6 606.28C414.76 606.29 414.92 606.29 415.08 606.28C415.08 606.28 415.08 606.28 415.08 606.28C417.24 606.07 425.32 609.83 426.76 612.31C428.2 614.8 433.28 616.69 437.11 617.16C439.38 617.44 445.13 616.97 449.95 616.35C452.38 616.1 454.78 615.66 457.14 615.04C458.28 614.61 458.52 613.23 458.19 611.68C458.19 611.68 458.19 611.68 458.19 611.68C457.81 609.7 456.75 607.93 455.21 606.64C453.81 605.65 451.97 603.03 450.6 600.9C450.57 600.84 450.28 600.38 450.24 600.32C452.65 598.02 456.99 590.52 458.31 588.97C459.92 587.08 455.73 518 455.73 518C455.73 515.69 455.73 504.15 455.73 483.38L462.15 450.6L466.65 433.26C468.96 417.55 470.24 408.82 470.5 407.07C470.5 407.07 477.25 376.49 475.17 373.49C475.17 373.49 475.17 373.49 475.17 373.49C475.17 373.43 473.44 341.94 471.63 334.37C470.85 331 471.04 323.41 471.51 316.03C472.5 315.04 472.84 313.57 472.37 312.25C472.24 311.81 472.08 311.38 471.87 310.97C471.87 310.84 471.87 310.7 471.87 310.57C475.6 308.86 479.49 307.53 483.49 306.62C489.91 305.36 488.31 302.05 488.31 302.05C488.31 302.05 489.76 299.21 490.72 297.48C491.67 295.74 490.88 280.44 490.72 279.18C490.66 278.68 490.26 275.86 489.8 272.67C491.86 271.21 494.55 269.39 497.47 267.66C503.03 264.37 501.78 260.89 501.33 259.99C501.3 259.9 501.26 259.82 501.2 259.76ZM414.6 494.1C414.6 494.1 414.28 508.93 414.28 508.93C414.12 510.66 412.83 524.54 412.67 526.27C412.67 526.27 408.18 558.44 409.78 566.01C411.04 571.94 411.51 589.67 411.65 597.06C411.65 597.06 411.65 597.06 411.65 597.06C411.54 597.1 411.44 597.15 411.34 597.21C411.31 597.22 411.14 597.31 411.12 597.32C411.86 594.42 411.55 588.54 407.87 576.7C407.84 571.82 407.59 532.71 407.56 527.83C407.56 527.83 406.99 471.37 411.45 465.06C411.45 465.06 417.48 448.02 417.48 448.02C417.48 448.02 416.52 463.49 415.89 467.58C415.26 471.68 417.49 478.65 417.49 478.65C416.92 481.74 412.67 490.95 414.6 494.1ZM408.39 600.44C408.36 600.41 408.17 600.16 408.14 600.13C408.27 600.14 408.39 600.14 408.51 600.14C408.47 600.24 408.42 600.34 408.39 600.44Z" id="aXrQyoQA"></path><linearGradient id="gradienta8CvqiynI" gradientUnits="userSpaceOnUse" x1="426.62" y1="620.34" x2="426.62" y2="122.13"><stop style="stop-color: #808080;stop-opacity: 0.25" offset="0%"></stop><stop style="stop-color: #808080;stop-opacity: 0.12" offset="54%"></stop><stop style="stop-color: #808080;stop-opacity: 0.1" offset="100%"></stop></linearGradient><path d="M437.9 621.64C434.12 621.18 429.12 619.27 427.7 616.76C426.27 614.26 418.3 610.49 416.16 610.73C415.28 610.75 414.4 610.63 413.57 610.37C412.09 609.92 410.65 609.37 409.26 608.71C409.06 607.62 409.09 606.51 409.35 605.43C409.4 605.22 409.46 605 409.54 604.79C410.04 603.38 411.09 602.22 412.44 601.57C412.47 601.55 412.72 601.44 412.75 601.42C413.35 601.16 413.97 600.97 414.61 600.85C421.39 599.55 449.36 602.16 449.36 602.16C449.36 602.16 450.15 603.57 451.22 605.31C452.57 607.47 454.4 610.1 455.78 611.09C457.31 612.4 458.34 614.19 458.72 616.16C459.05 617.69 458.81 619.08 457.68 619.51C455.19 620.46 441.68 622.1 437.9 621.64Z" id="c6m6bO7zq"></path><path d="M437.91 621.64C434.13 621.18 429.13 619.26 427.7 616.76C426.26 614.27 418.3 610.49 416.16 610.73C414.03 610.97 409.27 608.71 409.27 608.71C409.27 608.71 408.52 605.26 410.68 602.91C411.11 603.21 414.56 605.66 414.99 605.97C414.99 605.97 426.53 609.55 428.67 612.87C428.67 612.87 434.71 618.04 440.34 618.38C444.55 618.65 454.22 617.02 458.75 616.2C459.05 617.69 458.81 619.08 457.68 619.51C455.19 620.46 441.69 622.1 437.91 621.64Z" id="b5ZYpBbVcn"></path><path d="M401.17 624.62C393.07 625.57 386.88 622.03 385.81 620.58C384.73 619.12 379.15 614.19 374.86 612.47C372.77 611.66 372.27 609.02 372.37 606.55C372.37 606.42 372.37 606.28 372.37 606.15C372.45 604.59 372.68 603.03 373.06 601.52C375.3 601.47 386.48 601.23 406.62 600.8L409.52 604.74L409.97 605.35C411.03 606.79 411.62 607.59 411.74 607.75C411.74 607.75 412.54 608.8 413.59 610.34C415.37 612.93 417.86 616.75 418.52 619.27C418.52 619.27 418.52 619.27 418.52 619.27C419.58 623.32 416.4 623.91 416.4 623.91C411.31 623.81 406.22 624.05 401.17 624.62Z" id="c8dM3T5ZXp"></path><path d="M401.17 624.62C393.08 625.57 386.88 622.03 385.81 620.58C384.75 619.12 379.15 614.15 374.86 612.49C372.77 611.68 372.27 609.04 372.37 606.57C374.77 607.13 379.8 608.56 381.78 611.06C384.37 614.38 389 619.98 395.58 620.34C400.89 620.62 413.83 619.67 418.57 619.29C419.59 623.32 416.4 623.91 416.4 623.91C411.31 623.81 406.22 624.05 401.17 624.62Z" id="bnbYJ8WL"></path><path d="M409.96 605.36C409.74 605.4 409.53 605.4 409.32 605.36C409.2 605.35 409.09 605.34 408.98 605.31C408.98 605.31 378.85 611.97 372.76 606.58C372.6 606.44 372.46 606.29 372.33 606.13C372.4 604.57 372.64 603.02 373.02 601.5C375.25 601.45 386.44 601.21 406.57 600.78C408.32 603.15 409.29 604.46 409.48 604.72C409.98 603.31 411.03 602.15 412.38 601.5C412.02 604.41 410.82 605.19 409.96 605.36Z" id="b28DQMDnim"></path><path d="M449.63 606.29C448.04 605.66 435.04 603.44 430.9 605.35C426.77 607.25 412.79 605.66 412.79 605.66C412.79 605.66 412.79 604 412.72 601.34C413.31 601.09 413.94 600.89 414.58 600.77C421.36 599.47 449.33 602.09 449.33 602.09C449.33 602.09 450.15 603.53 451.22 605.28C450.54 606.02 449.98 606.44 449.63 606.29Z" id="hdoQgQb4"></path><path d="M467.09 436.53L462.65 453.98L456.3 486.98C456.3 507.94 456.3 519.58 456.3 521.91C456.3 521.91 460.43 591.41 458.84 593.31C458.84 593.31 451.22 606.01 449.64 605.38C449.64 605.38 435.04 602.53 430.91 604.42C430.91 604.42 412.8 604.74 412.8 604.74C412.8 604.74 412.48 577.77 410.9 570.16C410.9 570.16 413.75 530.17 413.75 530.17C413.91 528.43 415.18 514.47 415.34 512.72C415.34 512.72 417.56 500.98 415.66 497.8C415.66 497.8 418.51 482.28 418.51 482.28C418.51 482.28 416.29 475.29 416.93 471.16C416.93 471.16 418.51 451.49 418.51 451.49C418.51 451.49 416.93 462.29 412.53 468.63C412.53 468.63 408.68 531.78 408.68 531.78C408.71 536.69 408.96 576.02 408.99 580.94C416.93 606.97 408.99 604.42 408.99 604.42C408.99 604.42 378.85 611.09 372.77 605.69C366.68 600.29 368.42 566.31 368.42 566.31C368.42 566.31 367.79 539.02 370.32 530.78C372.86 522.53 373.66 492.06 373.66 492.06C373.66 492.06 373.5 431.13 373.66 427.01C373.78 423.56 373.66 392.68 373.66 383.03C373.66 381.23 373.66 380.17 373.66 380.17C373.9 379.57 375.12 376.56 377.3 371.13L420.43 365.73C432.8 365.73 439.68 365.73 441.06 365.73C441.06 365.73 472.1 373.03 475.31 376.18C475.38 376.23 475.44 376.3 475.49 376.37C477.56 379.41 470.9 410.19 470.9 410.19C470.39 413.7 469.12 422.48 467.09 436.53Z" id="cG6fNrAKJ"></path><path d="M432.5 572.98C436.98 574.56 418.54 548.54 418.54 548.54C421.33 553.43 428.02 571.39 432.5 572.98Z" id="c2kv1xWwGi"></path><path d="M453.76 587.26C453.44 590.75 422.05 582.18 422.05 582.18C428.39 583.2 454.08 583.77 453.76 587.26Z" id="a1MiTiSjNE"></path><path d="M379.19 573.05C380.46 574.25 403.62 576.5 401.72 578.69C399.81 580.88 381.1 585.14 381.1 585.14C380.72 582.72 379.57 575.46 379.19 573.05Z" id="adWywZDe4"></path><path d="M375.39 533.63C375.39 534.58 380.15 564.09 381.42 565.36C382.7 566.63 393.16 567.9 393.16 567.9C389.61 561.04 378.94 540.48 375.39 533.63Z" id="bxSj0Qz"></path><path d="M398.12 146.8C394.91 149.38 390.83 150.62 387.09 152.38C383.35 154.14 379.64 156.82 378.53 160.8C377.28 165.29 379.68 169.87 380.94 174.35C382.24 178.99 382.32 183.84 382.4 188.69C382.49 194.57 382.58 200.44 382.48 206.31C382.32 215.47 381.56 225.04 376.71 232.79C394.24 238.37 412.89 239.13 431.28 239.85C434.81 240.1 438.36 240.01 441.88 239.58C444.92 238.97 447.94 238.21 450.91 237.29C456.78 235.74 462.82 234.97 468.9 234.99C471.54 234.99 474.24 235.16 476.8 234.47C479.35 233.78 481.81 232.01 482.5 229.45C483.11 227.16 482.21 224.72 481.04 222.66C478.9 218.9 475.87 215.76 473.57 212.05C468.82 204.11 468.13 194.38 471.7 185.84C473.73 181.1 477.01 176.98 479.01 172.24C483.2 161.84 480.94 149.95 473.23 141.81C466.27 134.69 456.29 131.93 446.73 130.46C442.71 129.99 438.87 128.5 435.57 126.15C431.91 123.73 427.15 123.15 422.86 123.68C417.9 124.24 413.31 126.56 409.93 130.22C405.38 135.3 403.42 142.5 398.12 146.8Z" id="akPFglusK"></path><path d="M469.77 194.03C469.96 190.81 470.7 187.65 471.97 184.68C473.99 179.95 477.27 175.83 479.27 171.08C480.91 167.12 481.6 162.83 481.28 158.56C481.1 161.56 480.42 164.5 479.27 167.27C477.27 172.01 473.99 176.13 471.97 180.86C470.21 185.02 469.45 189.53 469.77 194.03Z" id="a6jx4qM0e"></path><path d="M382.77 197.67C382.77 193.02 382.73 188.37 382.66 183.72C382.59 178.9 382.5 174.02 381.2 169.37C380.34 166.42 379.06 163.42 378.61 160.45C377.85 164.67 380.03 168.96 381.2 173.18C382.5 177.78 382.59 182.7 382.66 187.52C382.71 190.9 382.76 194.29 382.77 197.67Z" id="cYDwLwxJM"></path><path d="M469.2 230.06C463.13 230.02 457.08 230.78 451.22 232.32C448.25 233.23 445.23 233.99 442.19 234.6C438.67 235.03 435.11 235.12 431.58 234.87C413.81 234.17 395.79 233.42 378.78 228.34C378.27 229.47 377.7 230.56 377.05 231.62C394.59 237.19 413.23 237.96 431.61 238.67C435.15 238.93 438.7 238.84 442.22 238.4C445.26 237.8 448.26 237.04 451.22 236.13C457.07 234.59 463.11 233.82 469.16 233.84C471.81 233.84 474.5 234.01 477.06 233.31C479.61 232.61 482.07 230.86 482.76 228.31C483.05 227.13 483.02 225.89 482.67 224.72C481.9 227.13 479.53 228.82 477.09 229.53C474.5 230.23 471.85 230.08 469.2 230.06Z" id="b4gXHATl1g"></path><path d="M447.58 234.38C446.94 235.65 443.45 255.94 443.13 257.08C442.82 258.22 420.17 252.32 420.17 252.32C419.26 251.56 414.71 247.75 406.53 240.89C398.12 232.52 393.45 227.87 392.52 226.94C392.52 226.94 392.1 214.36 402.43 210.33C403.13 210.05 403.85 209.82 404.58 209.65C417.11 206.64 415.85 168.56 415.85 168.56C418.42 169.67 438.98 178.55 441.55 179.66C441.55 179.66 436.79 201.88 436.95 206.17C436.99 207.61 438.12 208.51 439.6 209.05C441.88 209.7 444.25 209.95 446.62 209.81C446.62 209.81 452.18 217.89 451.54 219.31C450.91 220.74 448.21 233.11 447.58 234.38Z" id="a2jzGynFSF"></path><path d="M497.56 261.04C499.75 261.61 500.96 261.93 501.2 262C501.2 262 503.9 266.1 497.56 269.92C493.53 272.37 489.66 275.08 485.97 278.02C484.72 278.4 478.47 280.3 467.21 283.73L463.6 272.39L481.06 259.14L497.56 261.04Z" id="a12BZEh1Y5"></path><path d="M497.56 261.04C499.75 261.61 500.96 261.93 501.2 262C501.2 262 503.9 266.1 497.56 269.92C493.53 272.37 489.66 275.08 485.97 278.02C484.72 278.4 478.47 280.3 467.21 283.73L463.6 272.39L481.06 259.14L497.56 261.04Z" id="bgcA29s4s"></path><path d="M360.66 271.99C356.28 276.28 353.85 278.66 353.36 279.13C353.36 279.13 366.52 294.36 376.65 295.31C376.65 295.31 393.3 283.73 393.3 283.73C392.72 282.81 389.8 278.21 384.54 269.93L360.66 271.99Z" id="dgvwaVk7g"></path><path d="M360.66 271.99C356.28 276.28 353.85 278.66 353.36 279.13C353.36 279.13 366.52 294.36 376.65 295.31C376.65 295.31 393.3 283.73 393.3 283.73C392.72 282.81 389.8 278.21 384.54 269.93L360.66 271.99Z" id="f2PMJvqYgO"></path><path d="M429.96 142.68C415.95 142.68 404.58 154.05 404.58 168.06C404.58 182.08 415.95 193.45 429.96 193.45C443.98 193.45 455.35 182.08 455.35 168.06C455.35 154.05 443.98 142.68 429.96 142.68Z" id="a1Ho7lSDzs"></path><path d="M429.96 140.78C415.95 140.78 404.58 152.14 404.58 166.16C404.58 180.18 415.95 191.54 429.96 191.54C443.98 191.54 455.35 180.18 455.35 166.16C455.35 152.14 443.98 140.78 429.96 140.78Z" id="b1FObEuZRD"></path><path d="M458.52 383.05C449.03 386.21 374.69 383.1 373.65 383.05C373.65 381.26 373.65 380.2 373.65 380.2C373.9 379.6 375.11 376.58 377.29 371.16L420.42 365.76C432.8 365.76 439.67 365.76 441.05 365.76C441.05 365.76 472.1 373.06 475.3 376.2C475.43 378.1 475.5 379.25 475.5 379.25C469.72 379.91 464.03 381.19 458.52 383.05Z" id="c1RIlTUpj4"></path><path d="M447.58 234.38C446.94 235.65 443.45 255.94 443.13 257.08C442.82 258.22 420.17 252.32 420.17 252.32C419.26 251.56 414.71 247.75 406.53 240.89C398.12 232.52 393.45 227.87 392.52 226.94C392.52 226.94 392.1 214.36 402.43 210.33C404.13 212.29 412.68 222.11 428.06 239.8C434.98 221.35 438.83 211.1 439.6 209.05C441.88 209.7 444.25 209.95 446.62 209.81C446.62 209.81 452.18 217.89 451.54 219.31C450.91 220.74 448.21 233.11 447.58 234.38Z" id="cufvEU8ax"></path><path d="M428.06 240.74C412.32 222.63 403.57 212.57 401.82 210.56C398.7 208.57 394.79 208.28 391.41 209.79C385.54 212.33 378.24 214.4 376.34 215.66C374.43 216.93 367.29 224.78 367.29 224.78C368.71 228.49 375.8 247.04 388.56 280.42C382.94 302.41 379.82 314.62 379.19 317.06C379.19 317.06 380.62 335.79 376.97 342.61C374.75 346.97 373.71 351.84 373.96 356.73C373.96 356.73 375.07 365.78 373.8 370.53C373.06 373.71 373 377.01 373.64 380.21C373.64 380.21 449.01 383.38 458.52 380.21C464.03 378.33 469.72 377.06 475.5 376.4C475.5 376.4 473.78 344.66 472.05 337.05C472.05 337.05 473.48 300.4 473.48 300.4C473.35 298.33 472.66 287.96 471.42 269.3C478.84 250.15 482.97 239.52 483.79 237.39C483.79 237.39 477.09 216.93 470.1 214.87C470.1 214.87 457.42 211.85 454.72 210.43C452.02 209.01 444.08 207.73 444.08 207.73C443.81 207.82 442.42 208.29 439.92 209.13L428.06 240.74Z" id="d5PoQ4mpM"></path><path d="M464.66 268.25C466.35 268.37 467.14 269.27 467.02 270.95C463.47 323.25 461.49 352.31 461.09 358.12C460.98 359.81 460.08 360.59 458.39 360.48C425.27 358.23 406.86 356.97 403.18 356.72C401.5 356.61 400.71 355.71 400.83 354.02C404.38 301.72 406.36 272.67 406.75 266.85C406.87 265.17 407.77 264.38 409.46 264.5C442.58 266.75 460.98 268 464.66 268.25Z" id="b3DEiQ37yP"></path><path d="M466.56 266.36C468.25 266.47 469.04 267.37 468.92 269.06C465.37 321.36 463.39 350.42 463 356.23C462.88 357.91 461.98 358.7 460.29 358.58C427.17 356.33 408.77 355.08 405.08 354.83C403.4 354.72 402.61 353.82 402.73 352.13C406.28 299.83 408.26 270.77 408.65 264.96C408.77 263.27 409.67 262.49 411.36 262.6C444.48 264.86 462.88 266.11 466.56 266.36Z" id="c1cJ0EmPHD"></path><path d="M464.74 273.19C464.74 273.19 464.74 273.19 464.74 273.19C461.51 320.8 459.71 347.25 459.35 352.54C459.35 352.54 459.35 352.54 459.35 352.54C427.84 350.4 410.34 349.21 406.84 348.97C406.84 348.97 406.84 348.97 406.84 348.97C410.08 301.36 411.88 274.91 412.24 269.62C412.24 269.62 412.24 269.62 412.24 269.62C443.74 271.76 461.24 272.95 464.74 273.19Z" id="e2i1Vsnhxf"></path><path d="M460.03 293.45C460.03 293.45 460.03 293.45 460.03 293.45C459.53 300.62 459.25 304.6 459.2 305.4C459.2 305.4 459.2 305.4 459.2 305.4C433.46 303.6 419.17 302.6 416.31 302.4C416.31 302.4 416.31 302.4 416.31 302.4C416.81 295.22 417.09 291.24 417.14 290.44C417.14 290.44 417.14 290.44 417.14 290.44C442.88 292.24 457.18 293.24 460.03 293.45Z" id="aHFCLhD6n"></path><path d="M458.48 340.95C458.48 340.95 458.48 340.95 458.48 340.95C458.23 344.69 458.09 346.76 458.06 347.18C458.06 347.18 458.06 347.18 458.06 347.18C453.98 346.9 451.71 346.75 451.25 346.72C451.25 346.72 451.25 346.72 451.25 346.72C451.51 342.98 451.65 340.9 451.68 340.49C451.68 340.49 451.68 340.49 451.68 340.49C455.76 340.76 458.03 340.92 458.48 340.95Z" id="c5AwnpZh4"></path><path d="M451.77 325.91C451.77 325.91 451.77 325.91 451.77 325.91C451.51 329.65 451.37 331.73 451.35 332.14C451.35 332.14 451.35 332.14 451.35 332.14C430.44 330.72 418.83 329.93 416.5 329.77C416.5 329.77 416.5 329.77 416.5 329.77C416.76 326.04 416.9 323.96 416.93 323.54C416.93 323.54 416.93 323.54 416.93 323.54C437.83 324.97 449.45 325.76 451.77 325.91Z" id="aY8sSUbG"></path><path d="M458.24 270.22C458.24 270.22 458.24 270.22 458.24 270.22C457.85 275.97 457.64 279.16 457.59 279.8C457.59 279.8 457.59 279.8 457.59 279.8C435.83 278.32 423.73 277.5 421.31 277.33C421.31 277.33 421.31 277.33 421.31 277.33C421.71 271.59 421.92 268.4 421.97 267.76C421.97 267.76 421.97 267.76 421.97 267.76C443.73 269.24 455.83 270.06 458.24 270.22Z" id="alDli0Sxt"></path><path d="M458.24 270.22C458.24 270.22 458.24 270.22 458.24 270.22C457.85 275.97 457.64 279.16 457.59 279.8C457.59 279.8 457.59 279.8 457.59 279.8C435.83 278.32 423.73 277.5 421.31 277.33C421.31 277.33 421.31 277.33 421.31 277.33C421.71 271.59 421.92 268.4 421.97 267.76C421.97 267.76 421.97 267.76 421.97 267.76C443.73 269.24 455.83 270.06 458.24 270.22Z" id="b27HaofiBY"></path><path d="M418.54 451.44C418.54 451.44 433.46 415.9 433.46 414.47C433.46 413.05 441.7 398.13 439.49 393.69C437.29 389.24 431.23 377.5 431.23 377.5C428.69 392.29 430.91 424.47 418.54 451.44Z" id="b9pUXtuo1O"></path><path d="M431.91 159.81C431.43 155.65 432.45 151.46 434.78 147.99C434.2 155.19 439 161.72 446.04 163.34C445.45 162.82 445.23 161.99 445.5 161.25C447.27 163.25 448.62 165.62 450.62 167.38C452.62 169.14 455.62 170.19 457.98 168.94C461.18 167.22 461.21 162.67 460.38 159.14C458.61 151.61 454.96 144.65 449.78 138.9C447.17 135.37 443.05 133.28 438.66 133.24C433.76 132.86 428.67 133.29 424.28 135.49C421.81 136.84 419.5 138.45 417.38 140.31C416.17 141.29 406.51 149.17 405.31 150.16C404.14 151 403.15 152.04 402.37 153.25C401.86 154.25 401.54 155.35 401.46 156.48C400.83 163.06 403.98 169.43 409.58 172.93C409.47 167.71 412.51 162.94 417.29 160.85C418.03 161.47 418.46 162.38 418.48 163.35C418.74 162.89 420.77 159.26 421.03 158.81C421.41 157.98 422 157.28 422.75 156.77C424.32 155.9 426.28 156.92 427.62 158.14C428.96 159.35 430.26 160.87 432.05 161.06C432.06 160.61 432.08 158.36 432.12 154.31" id="d3Mc2ngNs"></path><path d="M431.91 158.86C431.43 154.7 432.45 150.51 434.78 147.03C434 153.93 439.2 161.05 446.05 162.38C445.45 161.87 445.24 161.04 445.51 160.3C447.27 162.3 448.63 164.67 450.63 166.43C452.63 168.2 455.63 169.25 457.99 167.99C461.19 166.26 461.22 161.72 460.39 158.19C458.62 150.66 454.97 143.7 449.79 137.95C448.19 135.99 446.16 134.41 443.87 133.34C442.21 132.73 440.46 132.37 438.69 132.29C433.79 131.91 428.71 132.33 424.32 134.53C421.85 135.89 419.53 137.5 417.42 139.36C416.21 140.35 406.55 148.23 405.34 149.21C404.18 150.05 403.18 151.09 402.41 152.3C401.89 153.3 401.58 154.4 401.49 155.53C400.87 162.11 404.01 168.48 409.62 171.97C409.5 166.76 412.55 161.99 417.32 159.9C418.06 160.52 418.49 161.42 418.52 162.39C418.77 161.94 420.8 158.32 421.06 157.87C421.43 157.04 422.03 156.34 422.78 155.83C424.35 154.96 426.31 155.98 427.64 157.2C428.98 158.41 430.28 159.92 432.08 160.12C432.08 159.67 432.11 157.42 432.15 153.36" id="bvLtZU9h2"></path><path d="M405.06 323.56C405.06 323.56 399.02 321.83 384.43 319.44C369.83 317.04 368.9 302.77 368.9 302.77C368.8 300.87 368.26 291.35 367.31 274.22L372.23 269.9C384.89 278.18 391.92 282.78 393.33 283.7C393.33 283.7 393.65 290.68 393.33 291.94C393.12 292.8 392.57 293.83 392.62 294.53C392.65 294.92 392.94 295.24 393.33 295.3C394.76 295.67 414.27 298.82 414.27 298.82C414.27 298.82 459.49 295.73 470.76 310.96C471.65 312.08 472.33 313.35 472.75 314.72C475.55 325.13 445.94 319.95 443.93 318.96C441.71 317.84 412.83 322.64 405.06 323.56Z" id="cbq3dXYoA"></path><path d="M469.98 316.1C469.98 316.1 453.8 315.62 444.71 312.33C435.62 309.04 424.57 309.62 424.57 309.62C424.57 309.62 386.69 303.1 392.57 294.59C392.6 294.98 392.89 295.3 393.27 295.36C394.71 295.73 414.22 298.88 414.22 298.88C414.22 298.88 459.44 295.79 470.71 311.02C471.63 312.13 472.33 313.41 472.78 314.78C471.05 315.55 470.54 315.83 469.98 316.1Z" id="d75XB9leLc"></path><path d="M488.51 264.53C488.51 264.53 490.73 280.24 490.89 281.51C490.89 281.51 491.85 298.17 490.89 299.92C490.89 299.92 488.51 304.52 488.51 304.52C488.51 304.52 490.1 307.84 483.75 309.12C483.75 309.12 469.95 314.19 469.95 314.19C469.95 314.19 453.76 313.72 444.72 310.39C444.72 310.39 424.57 307.69 424.57 307.69C424.57 307.69 376.49 299.44 397.12 289.36C397.12 289.36 432.34 292.93 432.34 292.93C434.65 292.79 453.05 291.65 455.35 291.51C455.35 291.51 463.92 286.27 466.3 286.75C467.98 286.96 469.69 286.69 471.22 285.96C471.23 284.84 471.28 279.29 471.38 269.29C480.52 266.75 486.23 265.17 488.51 264.53Z" id="a4Gwe8MCJW"></path><path d="M371.87 225.98L367.26 225.74C358.89 258.34 354.24 276.45 353.31 280.07C353.31 280.07 368.38 276.26 374.87 280.07C374.87 280.07 393.27 284.67 393.27 284.67C392.98 281.78 391.5 267.34 388.83 241.36L371.87 225.98Z" id="b1ukhgRzNL"></path><path d="M371.87 225.02L367.26 224.78C358.89 257.38 354.24 275.49 353.31 279.12C353.31 279.12 368.38 275.3 374.87 279.12C374.87 279.12 393.27 283.71 393.27 283.71C392.98 280.83 391.5 266.39 388.83 240.4L371.87 225.02Z" id="aKbkxZKTX"></path><path d="M477.41 236.92C481.21 237.78 483.33 238.26 483.75 238.36C483.75 238.36 499.94 261.64 501.2 262.94C501.2 262.94 495.17 268.98 492.16 268.98C492.16 268.98 474.39 270.71 470.1 274.69C465.82 278.68 467.6 258.62 467.6 258.17C467.6 257.71 472.92 245.06 472.92 245.06C473.52 243.97 475.02 241.26 477.41 236.92Z" id="eLS7IWndN"></path><path d="M477.41 235.98C481.21 236.83 483.33 237.3 483.75 237.4C483.75 237.4 499.94 260.73 501.2 262C501.2 262 495.17 268.03 492.16 268.03C492.16 268.03 474.39 269.76 470.1 273.74C465.82 277.73 467.6 257.67 467.6 257.22C467.6 256.76 472.96 244.07 472.96 244.07C473.55 242.99 475.04 240.29 477.41 235.98Z" id="aaZ35nsnp"></path><path d="M434.78 145.12C433.46 147.09 432.56 149.31 432.12 151.63C432.12 151.83 432.12 153.43 432.12 153.63C432.12 153.63 432.12 153.59 432.12 153.57C432.12 153.61 432.12 153.99 432.12 154.04C432.12 155.44 432.12 156.84 432.08 158.24C432.07 158.24 432.03 158.24 431.96 158.24C431.96 158.63 431.96 158.84 431.96 158.89C431.96 158.66 431.96 158.45 431.91 158.22C430.19 157.95 428.96 156.5 427.67 155.34C426.39 154.19 424.38 153.08 422.81 153.97C422.05 154.48 421.46 155.19 421.08 156.02C420.82 156.47 418.78 160.08 418.52 160.53C418.5 159.57 418.06 158.67 417.32 158.05C412.54 160.14 409.5 164.91 409.62 170.13C404.84 167.13 401.79 162.02 401.43 156.39C401.13 162.7 404.26 168.68 409.62 172.02C409.5 166.81 412.55 162.04 417.32 159.95C418.06 160.57 418.49 161.48 418.52 162.44C418.77 161.99 420.8 158.37 421.06 157.92C421.43 157.09 422.03 156.39 422.78 155.88C424.35 155.01 426.31 156.03 427.64 157.25C428.98 158.46 430.28 159.97 432.08 160.17C432.08 156.86 432.14 154.23 432.15 153.57C432.57 151.26 433.45 149.07 434.73 147.11C434.7 146.44 434.71 145.78 434.78 145.12Z" id="a2OGSvrOrE"></path><path d="M432.02 154.07C432.03 153.83 432.1 151.92 432.11 151.69C431.85 153.04 431.75 154.42 431.82 155.79C431.86 155.2 431.93 154.62 432.02 154.07Z" id="a1i8wWVB9d"></path><path d="M450.63 164.53C448.63 162.77 447.27 160.4 445.51 158.4C445.24 159.14 445.45 159.97 446.05 160.48C445.88 160.48 445.71 160.4 445.55 160.35C447.27 162.34 448.65 164.67 450.63 166.39C452.61 168.12 455.63 169.2 457.99 167.94C460.34 166.68 461.01 163.73 460.81 160.86C460.65 163.12 459.84 165.08 457.99 166.08C455.63 167.34 452.63 166.29 450.63 164.53Z" id="a3LYLqWd5J"></path><path d="M434.75 147.52C434.26 154.29 439.37 161.08 446.05 162.38C445.47 161.87 445.25 161.07 445.5 160.34C439.59 158.73 435.31 153.62 434.75 147.52Z" id="d3liplcip6"></path><path d="M294.21 616.89C294.21 624.35 256.58 630.39 210.17 630.39C163.75 630.39 126.13 624.35 126.13 616.89C126.13 609.44 163.75 603.4 210.17 603.4C256.58 603.4 294.21 609.44 294.21 616.89Z" id="gnv0pzvaw"></path><path d="M212.88 358.32C212.88 358.32 212.88 358.32 212.88 358.32C212.88 431.37 212.88 471.95 212.88 480.07C212.88 480.07 212.88 480.07 212.88 480.07C209.63 480.07 207.83 480.07 207.47 480.07C207.47 480.07 207.47 480.07 207.47 480.07C207.47 407.02 207.47 366.43 207.47 358.32C207.47 358.32 207.47 358.32 207.47 358.32C210.71 358.32 212.52 358.32 212.88 358.32Z" id="eVSr9BlW4"></path><path d="M246.52 485.19L246.05 492.96L245.85 496.18L245.36 503.95L245.16 507.17L244.68 514.93C241.41 567.75 239.59 597.1 239.22 602.97C238.74 610.83 232.22 616.96 224.35 616.95C221.51 616.95 198.83 616.95 196 616.95C188.1 616.96 181.57 610.79 181.12 602.91C180.76 597.04 178.94 567.69 175.66 514.87L175.19 507.11L174.99 503.88L174.5 496.12L174.3 492.9L173.82 485.13C173.62 481.84 173.5 480.01 173.48 479.65C173.23 475.37 176.51 471.7 180.79 471.46C180.92 471.45 181.05 471.45 181.19 471.45C186.99 471.45 233.37 471.45 239.16 471.45C243.45 471.47 246.91 474.97 246.88 479.25C246.88 479.41 246.88 479.56 246.87 479.71C246.82 480.44 246.7 482.27 246.52 485.19Z" id="aGzsU8U6l"></path><path d="M246.04 492.93L174.3 492.93L173.81 485.19L246.52 485.19L246.52 485.19L246.04 492.93Z" id="a3G415RgP"></path><path d="M245.36 503.9L174.98 503.9L174.5 496.16L245.84 496.16L245.84 496.16L245.36 503.9Z" id="b184nEuhBK"></path><path d="M244.68 514.87L175.66 514.87L175.18 507.14L245.16 507.14L245.16 507.14L244.68 514.87Z" id="bahv90ccA"></path><path d="M210.21 462.38C210.21 462.38 172.26 461.08 140.76 438.29C109.25 415.51 96.11 379.9 96.11 379.9C96.11 379.9 134.06 381.17 165.59 403.96C197.09 426.75 201.29 450.7 210.21 462.38Z" id="alVkJMpcZ"></path><path d="M96.11 379.9C96.11 379.9 135.5 401.76 148.14 419.86C148.14 419.86 210.18 462.4 210.18 462.4" id="ctlhXWSXk"></path><path d="M210.18 389.85C210.18 389.85 189.48 389.14 172.37 376.75C155.27 364.35 148.09 344.95 148.09 344.95C148.09 344.95 168.75 345.66 185.89 358.06C203.03 370.45 205.32 383.49 210.18 389.85Z" id="a7ydmCk1E"></path><path d="M148.09 344.95C148.09 344.95 169.53 356.85 176.41 366.7C176.41 366.7 210.18 389.85 210.18 389.85" id="b3PfsfQYwW"></path><path d="M211.23 438.79C211.23 438.79 238.99 431.97 258.66 410.32C278.34 388.68 282.52 360.4 282.52 360.4C282.52 360.4 254.77 367.23 235.08 388.87C215.39 410.5 216 428.8 211.23 438.79Z" id="a197aQtjTl"></path><path d="M282.54 360.41C282.54 360.41 256.89 382.6 250.37 397.88C250.37 397.88 211.23 438.79 211.23 438.79" id="ayGm76TXi"></path></defs><g><g><g><use xlink:href="#b640MgFfr" opacity="1" fill="#e5ecfd" fill-opacity="1"></use><g><use xlink:href="#b640MgFfr" opacity="1" fill-opacity="0" stroke="#000000" stroke-width="1" stroke-opacity="0"></use></g></g><g><use xlink:href="#b28ctaA8KY" opacity="1" fill="#e5ecfd" fill-opacity="1"></use><g><use xlink:href="#b28ctaA8KY" opacity="1" fill-opacity="0" stroke="#000000" stroke-width="1" stroke-opacity="0"></use></g></g><g><use xlink:href="#a357okaqo" opacity="1" fill="#e5ecfd" fill-opacity="1"></use><g><use xlink:href="#a357okaqo" opacity="1" fill-opacity="0" stroke="#000000" stroke-width="1" stroke-opacity="0"></use></g></g><g><use xlink:href="#a7BKmkImj" opacity="1" fill="#e5ecfd" fill-opacity="1"></use><g><use xlink:href="#a7BKmkImj" opacity="1" fill-opacity="0" stroke="#000000" stroke-width="1" stroke-opacity="0"></use></g></g><g><use xlink:href="#b1wMzExir" opacity="1" fill="#e5ecfd" fill-opacity="1"></use><g><use xlink:href="#b1wMzExir" opacity="1" fill-opacity="0" stroke="#000000" stroke-width="1" stroke-opacity="0"></use></g></g><g><use xlink:href="#h2FtYJNAnX" opacity="1" fill="#e5ecfd" fill-opacity="1"></use><g><use xlink:href="#h2FtYJNAnX" opacity="1" fill-opacity="0" stroke="#000000" stroke-width="1" stroke-opacity="0"></use></g></g><g><use xlink:href="#e1iztR0E4Z" opacity="1" fill="#e5ecfd" fill-opacity="1"></use><g><use xlink:href="#e1iztR0E4Z" opacity="1" fill-opacity="0" stroke="#000000" stroke-width="1" stroke-opacity="0"></use></g></g><g><use xlink:href="#djro6pgsv" opacity="1" fill="#e5ecfd" fill-opacity="1"></use><g><use xlink:href="#djro6pgsv" opacity="1" fill-opacity="0" stroke="#000000" stroke-width="1" stroke-opacity="0"></use></g></g><g><use xlink:href="#c6One2QTg" opacity="1" fill="#e5ecfd" fill-opacity="1"></use><g><use xlink:href="#c6One2QTg" opacity="1" fill-opacity="0" stroke="#000000" stroke-width="1" stroke-opacity="0"></use></g></g><g><use xlink:href="#arEVBtKAN" opacity="1" fill="#e5ecfd" fill-opacity="1"></use><g><use xlink:href="#arEVBtKAN" opacity="1" fill-opacity="0" stroke="#000000" stroke-width="1" stroke-opacity="0"></use></g></g><g><use xlink:href="#c3grmopDNB" opacity="1" fill="#e5ecfd" fill-opacity="1"></use><g><use xlink:href="#c3grmopDNB" opacity="1" fill-opacity="0" stroke="#000000" stroke-width="1" stroke-opacity="0"></use></g></g><g><use xlink:href="#b8ZsCDYbz" opacity="1" fill="#e5ecfd" fill-opacity="1"></use><g><use xlink:href="#b8ZsCDYbz" opacity="1" fill-opacity="0" stroke="#000000" stroke-width="1" stroke-opacity="0"></use></g></g><g><use xlink:href="#b3NXaPSEQ7" opacity="1" fill="#e5ecfd" fill-opacity="1"></use><g><use xlink:href="#b3NXaPSEQ7" opacity="1" fill-opacity="0" stroke="#000000" stroke-width="1" stroke-opacity="0"></use></g></g><g><use xlink:href="#f2O8ha0o43" opacity="1" fill="#cedcfd" fill-opacity="1"></use><g><use xlink:href="#f2O8ha0o43" opacity="1" fill-opacity="0" stroke="#000000" stroke-width="1" stroke-opacity="0"></use></g></g><g><use xlink:href="#a1IcpP0pXT" opacity="1" fill="#e5ecfd" fill-opacity="1"></use><g><use xlink:href="#a1IcpP0pXT" opacity="1" fill-opacity="0" stroke="#000000" stroke-width="1" stroke-opacity="0"></use></g></g><g><use xlink:href="#a3R7KemHSz" opacity="1" fill="#e5ecfd" fill-opacity="1"></use><g><use xlink:href="#a3R7KemHSz" opacity="1" fill-opacity="0" stroke="#000000" stroke-width="1" stroke-opacity="0"></use></g></g><g><use xlink:href="#d29jxN653r" opacity="1" fill="#e5ecfd" fill-opacity="1"></use><g><use xlink:href="#d29jxN653r" opacity="1" fill-opacity="0" stroke="#000000" stroke-width="1" stroke-opacity="0"></use></g></g><g><use xlink:href="#b3CrySKHr" opacity="1" fill="#e5ecfd" fill-opacity="1"></use><g><use xlink:href="#b3CrySKHr" opacity="1" fill-opacity="0" stroke="#000000" stroke-width="1" stroke-opacity="0"></use></g></g><g><use xlink:href="#bjqsEFLRe" opacity="1" fill="#e5ecfd" fill-opacity="1"></use><g><use xlink:href="#bjqsEFLRe" opacity="1" fill-opacity="0" stroke="#000000" stroke-width="1" stroke-opacity="0"></use></g></g><g><use xlink:href="#gSsZxQf8z" opacity="1" fill="#6c63ff" fill-opacity="1"></use><g><use xlink:href="#gSsZxQf8z" opacity="1" fill-opacity="0" stroke="#000000" stroke-width="1" stroke-opacity="0"></use></g></g><g><use xlink:href="#a7CtlSJMLf" opacity="1" fill="#6c63ff" fill-opacity="1"></use><g><use xlink:href="#a7CtlSJMLf" opacity="1" fill-opacity="0" stroke="#000000" stroke-width="1" stroke-opacity="0"></use></g></g><g><use xlink:href="#c9aRuTBSC" opacity="1" fill="#cedcfd" fill-opacity="1"></use><g><use xlink:href="#c9aRuTBSC" opacity="1" fill-opacity="0" stroke="#000000" stroke-width="1" stroke-opacity="0"></use></g></g><g><use xlink:href="#aXrQyoQA" opacity="1" fill="url(#gradienta8CvqiynI)"></use><g><use xlink:href="#aXrQyoQA" opacity="1" fill-opacity="0" stroke="#000000" stroke-width="1" stroke-opacity="0"></use></g></g><g><use xlink:href="#c6m6bO7zq" opacity="1" fill="#ffffff" fill-opacity="1"></use><g><use xlink:href="#c6m6bO7zq" opacity="1" fill-opacity="0" stroke="#000000" stroke-width="1" stroke-opacity="0"></use></g></g><g><use xlink:href="#b5ZYpBbVcn" opacity="1" fill="#000000" fill-opacity="1"></use><g><use xlink:href="#b5ZYpBbVcn" opacity="1" fill-opacity="0" stroke="#000000" stroke-width="1" stroke-opacity="0"></use></g></g><g><use xlink:href="#c8dM3T5ZXp" opacity="1" fill="#ffffff" fill-opacity="1"></use><g><use xlink:href="#c8dM3T5ZXp" opacity="1" fill-opacity="0" stroke="#000000" stroke-width="1" stroke-opacity="0"></use></g></g><g><use xlink:href="#bnbYJ8WL" opacity="1" fill="#000000" fill-opacity="1"></use><g><use xlink:href="#bnbYJ8WL" opacity="1" fill-opacity="0" stroke="#000000" stroke-width="1" stroke-opacity="0"></use></g></g><g><use xlink:href="#b28DQMDnim" opacity="1" fill="#000000" fill-opacity="1"></use><g><use xlink:href="#b28DQMDnim" opacity="1" fill-opacity="0" stroke="#000000" stroke-width="1" stroke-opacity="0"></use></g></g><g><use xlink:href="#hdoQgQb4" opacity="1" fill="#000000" fill-opacity="1"></use><g><use xlink:href="#hdoQgQb4" opacity="1" fill-opacity="0" stroke="#000000" stroke-width="1" stroke-opacity="0"></use></g></g><g><use xlink:href="#cG6fNrAKJ" opacity="1" fill="#0054fe" fill-opacity="1"></use><g><use xlink:href="#cG6fNrAKJ" opacity="1" fill-opacity="0" stroke="#000000" stroke-width="1" stroke-opacity="0"></use></g></g><g><use xlink:href="#c2kv1xWwGi" opacity="1" fill="#000000" fill-opacity="1"></use><g><use xlink:href="#c2kv1xWwGi" opacity="1" fill-opacity="0" stroke="#000000" stroke-width="1" stroke-opacity="0"></use></g></g><g><use xlink:href="#a1MiTiSjNE" opacity="1" fill="#000000" fill-opacity="1"></use><g><use xlink:href="#a1MiTiSjNE" opacity="1" fill-opacity="0" stroke="#000000" stroke-width="1" stroke-opacity="0"></use></g></g><g><use xlink:href="#adWywZDe4" opacity="1" fill="#000000" fill-opacity="1"></use><g><use xlink:href="#adWywZDe4" opacity="1" fill-opacity="0" stroke="#000000" stroke-width="1" stroke-opacity="0"></use></g></g><g><use xlink:href="#bxSj0Qz" opacity="1" fill="#000000" fill-opacity="1"></use><g><use xlink:href="#bxSj0Qz" opacity="1" fill-opacity="0" stroke="#000000" stroke-width="1" stroke-opacity="0"></use></g></g><g><use xlink:href="#akPFglusK" opacity="1" fill="#3f3d56" fill-opacity="1"></use><g><use xlink:href="#akPFglusK" opacity="1" fill-opacity="0" stroke="#000000" stroke-width="1" stroke-opacity="0"></use></g></g><g><use xlink:href="#a6jx4qM0e" opacity="1" fill="#000000" fill-opacity="1"></use><g><use xlink:href="#a6jx4qM0e" opacity="1" fill-opacity="0" stroke="#000000" stroke-width="1" stroke-opacity="0"></use></g></g><g><use xlink:href="#cYDwLwxJM" opacity="1" fill="#000000" fill-opacity="1"></use><g><use xlink:href="#cYDwLwxJM" opacity="1" fill-opacity="0" stroke="#000000" stroke-width="1" stroke-opacity="0"></use></g></g><g><use xlink:href="#b4gXHATl1g" opacity="1" fill="#000000" fill-opacity="1"></use><g><use xlink:href="#b4gXHATl1g" opacity="1" fill-opacity="0" stroke="#000000" stroke-width="1" stroke-opacity="0"></use></g></g><g><use xlink:href="#a2jzGynFSF" opacity="1" fill="#fbbebe" fill-opacity="1"></use><g><use xlink:href="#a2jzGynFSF" opacity="1" fill-opacity="0" stroke="#000000" stroke-width="1" stroke-opacity="0"></use></g></g><g><use xlink:href="#a12BZEh1Y5" opacity="1" fill="#6c63ff" fill-opacity="1"></use><g><use xlink:href="#a12BZEh1Y5" opacity="1" fill-opacity="0" stroke="#000000" stroke-width="1" stroke-opacity="0"></use></g></g><g><use xlink:href="#bgcA29s4s" opacity="1" fill="#000000" fill-opacity="1"></use><g><use xlink:href="#bgcA29s4s" opacity="1" fill-opacity="0" stroke="#000000" stroke-width="1" stroke-opacity="0"></use></g></g><g><use xlink:href="#dgvwaVk7g" opacity="1" fill="#6c63ff" fill-opacity="1"></use><g><use xlink:href="#dgvwaVk7g" opacity="1" fill-opacity="0" stroke="#000000" stroke-width="1" stroke-opacity="0"></use></g></g><g><use xlink:href="#f2PMJvqYgO" opacity="1" fill="#000000" fill-opacity="1"></use><g><use xlink:href="#f2PMJvqYgO" opacity="1" fill-opacity="0" stroke="#000000" stroke-width="1" stroke-opacity="0"></use></g></g><g><use xlink:href="#a1Ho7lSDzs" opacity="1" fill="#000000" fill-opacity="1"></use><g><use xlink:href="#a1Ho7lSDzs" opacity="1" fill-opacity="0" stroke="#000000" stroke-width="1" stroke-opacity="0"></use></g></g><g><use xlink:href="#b1FObEuZRD" opacity="1" fill="#fbbebe" fill-opacity="1"></use><g><use xlink:href="#b1FObEuZRD" opacity="1" fill-opacity="0" stroke="#000000" stroke-width="1" stroke-opacity="0"></use></g></g><g><use xlink:href="#c1RIlTUpj4" opacity="1" fill="#000000" fill-opacity="1"></use><g><use xlink:href="#c1RIlTUpj4" opacity="1" fill-opacity="0" stroke="#000000" stroke-width="1" stroke-opacity="0"></use></g></g><g><use xlink:href="#cufvEU8ax" opacity="1" fill="#000000" fill-opacity="1"></use><g><use xlink:href="#cufvEU8ax" opacity="1" fill-opacity="0" stroke="#000000" stroke-width="1" stroke-opacity="0"></use></g></g><g><use xlink:href="#d5PoQ4mpM" opacity="1" fill="#0054fe" fill-opacity="1"></use><g><use xlink:href="#d5PoQ4mpM" opacity="1" fill-opacity="0" stroke="#000000" stroke-width="1" stroke-opacity="0"></use></g></g><g><use xlink:href="#b3DEiQ37yP" opacity="1" fill="#000000" fill-opacity="1"></use><g><use xlink:href="#b3DEiQ37yP" opacity="1" fill-opacity="0" stroke="#000000" stroke-width="1" stroke-opacity="0"></use></g></g><g><use xlink:href="#c1cJ0EmPHD" opacity="1" fill="#3f3d56" fill-opacity="1"></use><g><use xlink:href="#c1cJ0EmPHD" opacity="1" fill-opacity="0" stroke="#000000" stroke-width="1" stroke-opacity="0"></use></g></g><g><use xlink:href="#e2i1Vsnhxf" opacity="1" fill="#ffffff" fill-opacity="1"></use><g><use xlink:href="#e2i1Vsnhxf" opacity="1" fill-opacity="0" stroke="#000000" stroke-width="1" stroke-opacity="0"></use></g></g><g><use xlink:href="#aHFCLhD6n" opacity="1" fill="#000000" fill-opacity="1"></use><g><use xlink:href="#aHFCLhD6n" opacity="1" fill-opacity="0" stroke="#000000" stroke-width="1" stroke-opacity="0"></use></g></g><g><use xlink:href="#c5AwnpZh4" opacity="1" fill="#000000" fill-opacity="1"></use><g><use xlink:href="#c5AwnpZh4" opacity="1" fill-opacity="0" stroke="#000000" stroke-width="1" stroke-opacity="0"></use></g></g><g><use xlink:href="#aY8sSUbG" opacity="1" fill="#000000" fill-opacity="1"></use><g><use xlink:href="#aY8sSUbG" opacity="1" fill-opacity="0" stroke="#000000" stroke-width="1" stroke-opacity="0"></use></g></g><g><use xlink:href="#alDli0Sxt" opacity="1" fill="#3f3d56" fill-opacity="1"></use><g><use xlink:href="#alDli0Sxt" opacity="1" fill-opacity="0" stroke="#000000" stroke-width="1" stroke-opacity="0"></use></g></g><g><use xlink:href="#b27HaofiBY" opacity="1" fill="#000000" fill-opacity="1"></use><g><use xlink:href="#b27HaofiBY" opacity="1" fill-opacity="0" stroke="#000000" stroke-width="1" stroke-opacity="0"></use></g></g><g><use xlink:href="#b9pUXtuo1O" opacity="1" fill="#000000" fill-opacity="1"></use><g><use xlink:href="#b9pUXtuo1O" opacity="1" fill-opacity="0" stroke="#000000" stroke-width="1" stroke-opacity="0"></use></g></g><g><use xlink:href="#d3Mc2ngNs" opacity="1" fill="#000000" fill-opacity="1"></use><g><use xlink:href="#d3Mc2ngNs" opacity="1" fill-opacity="0" stroke="#000000" stroke-width="1" stroke-opacity="0"></use></g></g><g><use xlink:href="#bvLtZU9h2" opacity="1" fill="#3f3d56" fill-opacity="1"></use><g><use xlink:href="#bvLtZU9h2" opacity="1" fill-opacity="0" stroke="#000000" stroke-width="1" stroke-opacity="0"></use></g></g><g><use xlink:href="#cbq3dXYoA" opacity="1" fill="#fbbebe" fill-opacity="1"></use><g><use xlink:href="#cbq3dXYoA" opacity="1" fill-opacity="0" stroke="#000000" stroke-width="1" stroke-opacity="0"></use></g></g><g><use xlink:href="#d75XB9leLc" opacity="1" fill="#000000" fill-opacity="1"></use><g><use xlink:href="#d75XB9leLc" opacity="1" fill-opacity="0" stroke="#000000" stroke-width="1" stroke-opacity="0"></use></g></g><g><use xlink:href="#a4Gwe8MCJW" opacity="1" fill="#fbbebe" fill-opacity="1"></use><g><use xlink:href="#a4Gwe8MCJW" opacity="1" fill-opacity="0" stroke="#000000" stroke-width="1" stroke-opacity="0"></use></g></g><g><use xlink:href="#b1ukhgRzNL" opacity="1" fill="#000000" fill-opacity="1"></use><g><use xlink:href="#b1ukhgRzNL" opacity="1" fill-opacity="0" stroke="#000000" stroke-width="1" stroke-opacity="0"></use></g></g><g><use xlink:href="#aKbkxZKTX" opacity="1" fill="#0054fe" fill-opacity="1"></use><g><use xlink:href="#aKbkxZKTX" opacity="1" fill-opacity="0" stroke="#000000" stroke-width="1" stroke-opacity="0"></use></g></g><g><use xlink:href="#eLS7IWndN" opacity="1" fill="#000000" fill-opacity="1"></use><g><use xlink:href="#eLS7IWndN" opacity="1" fill-opacity="0" stroke="#000000" stroke-width="1" stroke-opacity="0"></use></g></g><g><use xlink:href="#aaZ35nsnp" opacity="1" fill="#0054fe" fill-opacity="1"></use><g><use xlink:href="#aaZ35nsnp" opacity="1" fill-opacity="0" stroke="#000000" stroke-width="1" stroke-opacity="0"></use></g></g><g><use xlink:href="#a2OGSvrOrE" opacity="1" fill="#000000" fill-opacity="1"></use><g><use xlink:href="#a2OGSvrOrE" opacity="1" fill-opacity="0" stroke="#000000" stroke-width="1" stroke-opacity="0"></use></g></g><g><use xlink:href="#a1i8wWVB9d" opacity="1" fill="#000000" fill-opacity="1"></use><g><use xlink:href="#a1i8wWVB9d" opacity="1" fill-opacity="0" stroke="#000000" stroke-width="1" stroke-opacity="0"></use></g></g><g><use xlink:href="#a3LYLqWd5J" opacity="1" fill="#000000" fill-opacity="1"></use><g><use xlink:href="#a3LYLqWd5J" opacity="1" fill-opacity="0" stroke="#000000" stroke-width="1" stroke-opacity="0"></use></g></g><g><use xlink:href="#d3liplcip6" opacity="1" fill="#000000" fill-opacity="1"></use><g><use xlink:href="#d3liplcip6" opacity="1" fill-opacity="0" stroke="#000000" stroke-width="1" stroke-opacity="0"></use></g></g><g><use xlink:href="#gnv0pzvaw" opacity="1" fill="#cedcfd" fill-opacity="1"></use><g><use xlink:href="#gnv0pzvaw" opacity="1" fill-opacity="0" stroke="#000000" stroke-width="1" stroke-opacity="0"></use></g></g><g><use xlink:href="#eVSr9BlW4" opacity="1" fill="#535461" fill-opacity="1"></use><g><use xlink:href="#eVSr9BlW4" opacity="1" fill-opacity="0" stroke="#000000" stroke-width="1" stroke-opacity="0"></use></g></g><g><use xlink:href="#aGzsU8U6l" opacity="1" fill="#3f3d56" fill-opacity="1"></use><g><use xlink:href="#aGzsU8U6l" opacity="1" fill-opacity="0" stroke="#000000" stroke-width="1" stroke-opacity="0"></use></g></g><g><use xlink:href="#a3G415RgP" opacity="1" fill="#9d9cb5" fill-opacity="1"></use><g><use xlink:href="#a3G415RgP" opacity="1" fill-opacity="0" stroke="#000000" stroke-width="1" stroke-opacity="0"></use></g></g><g><use xlink:href="#b184nEuhBK" opacity="1" fill="#9d9cb5" fill-opacity="1"></use><g><use xlink:href="#b184nEuhBK" opacity="1" fill-opacity="0" stroke="#000000" stroke-width="1" stroke-opacity="0"></use></g></g><g><use xlink:href="#bahv90ccA" opacity="1" fill="#9d9cb5" fill-opacity="1"></use><g><use xlink:href="#bahv90ccA" opacity="1" fill-opacity="0" stroke="#000000" stroke-width="1" stroke-opacity="0"></use></g></g><g><use xlink:href="#alVkJMpcZ" opacity="1" fill="#0054fe" fill-opacity="1"></use><g><use xlink:href="#alVkJMpcZ" opacity="1" fill-opacity="0" stroke="#000000" stroke-width="1" stroke-opacity="0"></use></g></g><g><use xlink:href="#ctlhXWSXk" opacity="1" fill="#000000" fill-opacity="0"></use><g><use xlink:href="#ctlhXWSXk" opacity="1" fill-opacity="0" stroke="#535461" stroke-width="2" stroke-opacity="1"></use></g></g><g><use xlink:href="#a7ydmCk1E" opacity="1" fill="#0054fe" fill-opacity="1"></use><g><use xlink:href="#a7ydmCk1E" opacity="1" fill-opacity="0" stroke="#000000" stroke-width="1" stroke-opacity="0"></use></g></g><g><use xlink:href="#b3PfsfQYwW" opacity="1" fill="#000000" fill-opacity="0"></use><g><use xlink:href="#b3PfsfQYwW" opacity="1" fill-opacity="0" stroke="#535461" stroke-width="2" stroke-opacity="1"></use></g></g><g><use xlink:href="#a197aQtjTl" opacity="1" fill="#0054fe" fill-opacity="1"></use><g><use xlink:href="#a197aQtjTl" opacity="1" fill-opacity="0" stroke="#000000" stroke-width="1" stroke-opacity="0"></use></g></g><g><use xlink:href="#ayGm76TXi" opacity="1" fill="#000000" fill-opacity="0"></use><g><use xlink:href="#ayGm76TXi" opacity="1" fill-opacity="0" stroke="#535461" stroke-width="2" stroke-opacity="1"></use></g></g></g></g></svg>