<?xml version="1.0" encoding="UTF-8" standalone="no"?>
<!DOCTYPE svg PUBLIC "-//W3C//DTD SVG 1.1//EN" "http://www.w3.org/Graphics/SVG/1.1/DTD/svg11.dtd">
<svg version="1.1" xmlns="http://www.w3.org/2000/svg" xmlns:xlink="http://www.w3.org/1999/xlink" preserveAspectRatio="xMidYMid meet" viewBox="0 0 640 640" width="640" height="640"><defs><path d="M246.9 8.27C246.9 8.27 246.9 8.27 246.9 8.27C246.9 87.31 246.9 131.22 246.9 140C246.9 140 246.9 140 246.9 140C211.21 140 191.39 140 187.42 140C187.42 140 187.42 140 187.42 140C187.42 60.96 187.42 17.06 187.42 8.27C187.42 8.27 187.42 8.27 187.42 8.27C223.11 8.27 242.94 8.27 246.9 8.27Z" id="a5y4Cw5WX"></path><path d="M246.91 274.81L-48.3 274.81L-48.3 218.41L108.94 218.41L108.94 251.68L187.42 251.68L187.42 144.04L246.91 144.04L246.91 144.04L246.91 274.81Z" id="eLzcT3dfE"></path><path d="M246.9 419.01C246.9 427.59 246.9 496.21 246.9 504.79C230.92 503.48 218.23 501.48 215.05 501.11C167.39 494.17 120.92 480.65 76.98 460.94C57.95 452.36 43.43 444.1 39.7 442.23C19.38 430.97 -0.09 418.23 -18.56 404.13C-25.53 398.8 -30.93 394.32 -32.3 393.23C-35.43 390.64 -38.53 387.99 -41.69 385.43C-43.86 383.67 -46.06 381.92 -48.3 380.25C-48.3 373.49 -48.3 339.69 -48.3 278.85C92.67 278.85 170.99 278.85 186.65 278.85C186.48 278.25 186.33 277.65 186.16 277.05C186.34 277.65 186.51 278.25 186.66 278.85C190.68 278.85 210.76 278.85 246.91 278.85C246.91 362.94 246.91 409.66 246.91 419C247.22 419.01 247.53 419.04 247.85 419.06C247.53 419.06 247.22 419.06 246.9 419.01Z" id="e166nzzl5Z"></path><path d="M495.41 140.01C381.24 140.01 317.81 140.01 305.13 140.01C305.15 140.01 305.17 140.01 305.18 140.01C305.18 140.01 305.15 140.01 305.1 140.01L269.82 140.01L269.82 8.28L279.82 8.28L279.82 105.65L325.52 105.65L325.52 47.99L363.28 47.99L363.28 2.49L402.04 2.49L402.04 48.01L439.78 48.01L439.78 105.67L495.42 105.67L495.41 140.01Z" id="bsXThZDWK"></path><path d="M269.82 144.05L269.82 274.81L495.42 274.81L495.42 144.05L269.82 144.05ZM556.62 428.72L556.94 325.21L495.42 325.21L495.42 278.89L269.82 278.89C269.82 415.31 269.82 491.1 269.82 506.26C288.32 507.02 306.84 506.8 325.31 505.58C325.31 505.58 325.31 505.58 325.31 505.58C325.5 505.58 325.61 505.58 325.63 505.58C334.45 505.02 343.23 504.21 351.98 503.16C352.09 503.16 352.16 503.16 352.17 503.16C398.82 497.74 444.42 485.55 487.56 467" id="j5hj6wINi"></path><path d="M583.84 278.85C615.41 278.85 632.95 278.85 636.46 278.85C636.01 305.41 630.67 331.49 619 355.57C609.3 375.58 595.81 393.08 579.87 408.36C579.87 402.82 579.87 375.09 579.87 325.18L583.84 325.18L583.84 278.85Z" id="b5KXEr9cIZ"></path><path d="M583.84 274.81L583.84 165.53C600.94 165.53 610.44 165.53 612.34 165.53C627.07 199.96 636.45 237.77 636.5 274.81C629.48 274.81 611.92 274.81 583.84 274.81Z" id="c2Bi7ig8Jx"></path><path d="M247.81 45.62C247.81 45.62 247.81 45.62 247.81 45.62C246.71 70.38 246.1 84.13 245.98 86.88C245.98 86.88 245.98 86.88 245.98 86.88C226.88 86.03 216.27 85.56 214.14 85.47C214.14 85.47 214.14 85.47 214.14 85.47C215.24 60.71 215.85 46.96 215.98 44.21C215.98 44.21 215.98 44.21 215.98 44.21C235.08 45.06 245.69 45.53 247.81 45.62Z" id="b6cvnsT7qY"></path><path d="M246.91 130.5C246.91 130.5 246.91 130.5 246.91 130.5C246.91 136.2 246.91 139.37 246.91 140.01C246.91 140.01 246.91 140.01 246.91 140.01C227.79 140.01 217.17 140.01 215.05 140.01C215.05 140.01 215.05 140.01 215.05 140.01C215.05 134.3 215.05 131.13 215.05 130.5C215.05 130.5 215.05 130.5 215.05 130.5C234.16 130.5 244.79 130.5 246.91 130.5Z" id="fVhKt7l4v"></path><path d="M246.91 144.04C246.91 144.04 246.91 144.04 246.91 144.04C246.91 160.69 246.91 169.94 246.91 171.79C246.91 171.79 246.91 171.79 246.91 171.79C227.79 171.79 217.17 171.79 215.05 171.79C215.05 171.79 215.05 171.79 215.05 171.79C215.05 155.14 215.05 145.89 215.05 144.04C215.05 144.04 215.05 144.04 215.05 144.04C234.16 144.04 244.79 144.04 246.91 144.04Z" id="a9w2lFNMOt"></path><path d="M246.91 216.1C246.91 216.1 246.91 216.1 246.91 216.1C246.91 240.88 246.91 254.64 246.91 257.4C246.91 257.4 246.91 257.4 246.91 257.4C227.79 257.4 217.17 257.4 215.05 257.4C215.05 257.4 215.05 257.4 215.05 257.4C215.05 232.62 215.05 218.85 215.05 216.1C215.05 216.1 215.05 216.1 215.05 216.1C234.16 216.1 244.79 216.1 246.91 216.1Z" id="e5wogDzbj"></path><path d="M246.91 301.7C246.91 301.7 246.91 301.7 246.91 301.7C246.91 326.48 246.91 340.25 246.91 343C246.91 343 246.91 343 246.91 343C227.79 343 217.17 343 215.05 343C215.05 343 215.05 343 215.05 343C215.05 318.22 215.05 304.45 215.05 301.7C215.05 301.7 215.05 301.7 215.05 301.7C234.16 301.7 244.79 301.7 246.91 301.7Z" id="c1in3XPOSt"></path><path d="M246.91 419C247.22 419 247.53 419 247.86 419.06C247.54 419.06 247.23 419.06 246.91 419.01C246.91 419.65 246.91 422.85 246.91 428.6L215.05 428.6L215.05 387.3L246.91 387.3C246.91 404.21 246.91 414.77 246.91 419Z" id="bF4d59A0s"></path><path d="M246.91 472.9C246.91 492.03 246.91 502.66 246.91 504.79C236.25 503.91 225.63 502.69 215.05 501.11L215.05 472.9L246.91 472.9Z" id="b3XzGeE2QZ"></path><path d="M352.19 156.72C352.19 156.72 352.19 156.72 352.19 156.72C352.19 172.85 352.19 181.81 352.19 183.6C352.19 183.6 352.19 183.6 352.19 183.6C336.06 183.6 327.1 183.6 325.31 183.6C325.31 183.6 325.31 183.6 325.31 183.6C325.31 167.47 325.31 158.51 325.31 156.72C325.31 156.72 325.31 156.72 325.31 156.72C341.44 156.72 350.4 156.72 352.19 156.72Z" id="i2vdMb2S9Q"></path><path d="M454.82 156.72C454.82 156.72 454.82 156.72 454.82 156.72C454.82 172.85 454.82 181.81 454.82 183.6C454.82 183.6 454.82 183.6 454.82 183.6C438.69 183.6 429.73 183.6 427.94 183.6C427.94 183.6 427.94 183.6 427.94 183.6C427.94 167.47 427.94 158.51 427.94 156.72C427.94 156.72 427.94 156.72 427.94 156.72C444.07 156.72 453.03 156.72 454.82 156.72Z" id="c611viUlU"></path><path d="M352.19 223.03C352.19 223.03 352.19 223.03 352.19 223.03C352.19 239.16 352.19 248.12 352.19 249.91C352.19 249.91 352.19 249.91 352.19 249.91C336.06 249.91 327.1 249.91 325.31 249.91C325.31 249.91 325.31 249.91 325.31 249.91C325.31 233.78 325.31 224.82 325.31 223.03C325.31 223.03 325.31 223.03 325.31 223.03C341.44 223.03 350.4 223.03 352.19 223.03Z" id="dRbug9D2u"></path><path d="M454.82 223.03C454.82 223.03 454.82 223.03 454.82 223.03C454.82 239.16 454.82 248.12 454.82 249.91C454.82 249.91 454.82 249.91 454.82 249.91C438.69 249.91 429.73 249.91 427.94 249.91C427.94 249.91 427.94 249.91 427.94 249.91C427.94 233.78 427.94 224.82 427.94 223.03C427.94 223.03 427.94 223.03 427.94 223.03C444.07 223.03 453.03 223.03 454.82 223.03Z" id="h1hMBkBOF5"></path><path d="M352.19 289.33C352.19 289.33 352.19 289.33 352.19 289.33C352.19 305.46 352.19 314.42 352.19 316.21C352.19 316.21 352.19 316.21 352.19 316.21C336.06 316.21 327.1 316.21 325.31 316.21C325.31 316.21 325.31 316.21 325.31 316.21C325.31 300.08 325.31 291.12 325.31 289.33C325.31 289.33 325.31 289.33 325.31 289.33C341.44 289.33 350.4 289.33 352.19 289.33Z" id="beONvvwPC"></path><path d="M454.82 289.33C454.82 289.33 454.82 289.33 454.82 289.33C454.82 305.46 454.82 314.42 454.82 316.21C454.82 316.21 454.82 316.21 454.82 316.21C438.69 316.21 429.73 316.21 427.94 316.21C427.94 316.21 427.94 316.21 427.94 316.21C427.94 300.08 427.94 291.12 427.94 289.33C427.94 289.33 427.94 289.33 427.94 289.33C444.07 289.33 453.03 289.33 454.82 289.33Z" id="a9oyfp6oY"></path><path d="M352.19 355.64C352.19 355.64 352.19 355.64 352.19 355.64C352.19 371.77 352.19 380.73 352.19 382.52C352.19 382.52 352.19 382.52 352.19 382.52C336.06 382.52 327.1 382.52 325.31 382.52C325.31 382.52 325.31 382.52 325.31 382.52C325.31 366.39 325.31 357.43 325.31 355.64C325.31 355.64 325.31 355.64 325.31 355.64C341.44 355.64 350.4 355.64 352.19 355.64Z" id="kIF08ePj9"></path><path d="M454.82 355.64C454.82 355.64 454.82 355.64 454.82 355.64C454.82 371.77 454.82 380.73 454.82 382.52C454.82 382.52 454.82 382.52 454.82 382.52C438.69 382.52 429.73 382.52 427.94 382.52C427.94 382.52 427.94 382.52 427.94 382.52C427.94 366.39 427.94 357.43 427.94 355.64C427.94 355.64 427.94 355.64 427.94 355.64C444.07 355.64 453.03 355.64 454.82 355.64Z" id="a5muFS3gI"></path><path d="M352.19 421.95C352.19 421.95 352.19 421.95 352.19 421.95C352.19 438.08 352.19 447.04 352.19 448.83C352.19 448.83 352.19 448.83 352.19 448.83C336.06 448.83 327.1 448.83 325.31 448.83C325.31 448.83 325.31 448.83 325.31 448.83C325.31 432.7 325.31 423.74 325.31 421.95C325.31 421.95 325.31 421.95 325.31 421.95C341.44 421.95 350.4 421.95 352.19 421.95Z" id="c1w4Wi1FYJ"></path><path d="M454.82 421.95C454.82 421.95 454.82 421.95 454.82 421.95C454.82 438.08 454.82 447.04 454.82 448.83C454.82 448.83 454.82 448.83 454.82 448.83C438.69 448.83 429.73 448.83 427.94 448.83C427.94 448.83 427.94 448.83 427.94 448.83C427.94 432.7 427.94 423.74 427.94 421.95C427.94 421.95 427.94 421.95 427.94 421.95C444.07 421.95 453.03 421.95 454.82 421.95Z" id="chynXlUjP"></path><path d="M325.31 488.25L352.18 488.25L352.18 503.12L325.31 505.58L325.31 505.58L325.31 488.25Z" id="bLxSQwEve"></path><path d="M456.2 625.21C456.2 633.38 414.96 640 364.09 640C313.22 640 271.99 633.38 271.99 625.21C271.99 617.04 313.22 610.41 364.09 610.41C414.96 610.41 456.2 617.04 456.2 625.21Z" id="bGiJKyjCu"></path><path d="M443.77 258.59C443.77 258.59 441.1 243.03 441.1 243.03C441.1 243.03 441.1 243.03 441.1 243.03C441.1 243.03 438.8 225.38 435.61 222.58C435.61 222.58 428.33 203.36 428.33 203.36C428.33 203.36 427.63 194.44 426.21 192.52C426.21 192.52 422.85 185.91 420.01 179.21C417.16 172.5 405.33 167.91 405.33 167.91C405.33 167.91 383.88 155.47 377.8 151.42C377.8 151.42 377.8 151.42 377.8 151.42C377.24 151.08 376.72 150.69 376.25 150.24C375.19 148.86 370.58 148.83 370.58 148.83C370.1 145.78 369.63 142.28 369.48 139.12C369.48 138.78 369.48 138.44 369.48 138.1C376.26 134.09 381.36 127.77 383.86 120.31C383.97 119.95 384.07 119.58 384.17 119.21C385.01 118.95 385.7 118.35 386.06 117.55C386.6 116.33 386.62 114.91 387.3 113.77C388.09 112.42 389.61 111.7 390.8 110.7C393.8 108.14 394.58 103.84 394.44 99.94C394.34 96.76 393.83 93.57 394.03 90.42C394.03 90.15 394.03 89.89 394.09 89.62C394.14 89.16 394.21 88.68 394.29 88.22C394.76 85.88 395.77 83.67 396.34 81.34C396.9 79.02 396.96 76.4 395.64 74.4C393.7 71.46 389.66 70.87 386.12 70.61C382.1 70.27 378.56 70.71 375.94 67.37C374.74 65.63 373.38 64 371.89 62.49C371.36 62 366.22 58.86 366.22 58.66C361.19 56.32 355.48 55.88 350.15 57.42C347.48 58.19 344.97 59.46 342.26 60.09C336.44 61.47 329.72 59.98 324.77 63.32C322.01 65.21 320.36 68.22 318.81 71.14C316.92 74.75 315.35 77.65 314.97 78.38C312.87 82.34 310.75 86.36 309.87 90.75C309.69 91.71 309.57 92.68 309.52 93.65C309.52 93.65 309.52 93.65 309.52 93.65C309.52 94 309.52 94.35 309.52 94.7C309.52 94.85 309.52 95 309.52 95.15C309.52 95.47 309.52 95.8 309.58 96.1C309.64 96.4 309.58 96.49 309.65 96.68C309.71 96.88 309.73 97.33 309.79 97.63C309.85 97.93 309.96 98.47 310.07 98.88C310.07 99.06 310.19 99.23 310.24 99.41C310.3 99.59 310.45 100.04 310.57 100.35C310.7 100.66 310.71 100.68 310.78 100.84C310.92 101.17 311.09 101.5 311.26 101.79C311.34 101.91 311.4 102.03 311.47 102.16C311.73 102.6 312.02 103.02 312.34 103.42C314.35 105.95 317.34 107.56 319.54 109.92C319.54 110.01 319.54 110.11 319.54 110.2C319.54 110.46 319.54 110.71 319.54 110.98C319.82 121.68 325.37 131.55 334.37 137.35C334.37 137.71 334.41 138.08 334.43 138.45C334.62 141.25 334.58 144.06 334.33 146.86C333.55 145.94 332.39 145.43 331.19 145.46C330.78 145.44 330.38 145.47 329.98 145.56C329.97 145.56 329.95 145.54 329.89 145.5L329.89 145.5C329.89 145.55 329.89 145.58 329.89 145.58C327.81 146.09 325.25 148.26 322.8 154.41C322.8 154.41 315.36 162.81 309.68 162.46C304.01 162.11 289.65 171.2 289.65 171.2C289.65 171.2 275.65 180.28 272.64 189.55C270.96 194.8 268.94 199.94 266.6 204.94C265.44 207.31 259.65 219.2 249.24 240.59L249.24 240.59C247.32 257.61 246.26 267.06 246.05 268.95C246.05 268.95 247.82 281.53 247.47 283.46C247.47 283.46 254.74 302.68 254.74 302.68C254.74 302.68 279.91 346.9 290.19 349.17C290.27 349.12 290.86 348.71 290.93 348.66C291.37 348.89 291.84 349.06 292.32 349.17C292.53 349.02 294.23 347.84 294.44 347.69C294.57 349.35 294.51 351.02 294.27 352.67C292.86 357.05 294.81 385.54 297.28 391.12C299.76 396.71 298.88 469.97 298.88 469.97C298.85 470.61 298.57 475.78 298.53 476.42C298.53 476.42 298.53 476.63 298.62 476.99C298.61 477.09 298.58 477.6 298.53 478.52C298.68 478.6 298.77 478.65 298.79 478.65C299.05 480.71 298.96 482.79 298.53 484.82C297.64 487.65 297.28 495.66 297.28 495.66C297.28 495.66 290.19 540.92 293.56 550.01C296.92 559.1 299.77 569.07 299.77 569.07C299.77 569.07 303.31 580.41 299.94 582.3C296.56 584.19 287.01 587.55 288.95 592.26C290.75 596.63 297.57 608.33 298.58 610.04C298.57 610.11 298.54 610.42 298.49 610.99C297.66 620.02 297.2 625.04 297.1 626.05C297.33 628.04 297.87 629.98 298.7 631.8C300.22 635.08 303.17 638.48 308.81 638.11C309.75 638.04 310.84 637.94 311.91 637.8C322.2 636.41 334.87 631.81 334.87 631.81C334.21 631.4 333.61 630.9 333.08 630.33C333.08 630.33 333.08 630.33 333.08 630.33C332.06 629.34 331.49 627.97 331.5 626.55C331.65 623.8 326.52 610.74 325.23 607.52C325.2 607.45 324.97 606.87 324.94 606.8C324.94 606.8 336.64 594.56 334.7 583.73C334.7 583.73 321.75 576.17 326.01 572.01C330.27 567.85 337.89 555.94 337.89 555.94C337.89 555.94 338.24 511.37 337.89 504.72C337.53 500.1 337.75 495.45 338.54 490.89C338.68 490.21 338.86 489.53 339.03 488.86C344.94 489.75 350.89 490.21 356.86 490.21C360.13 490.21 362.82 490.1 363.48 490.08C363.48 491.03 363.56 491.92 363.56 492.12C364.06 503.16 364.97 522.53 365.72 529.73C366.78 540.03 372.63 567.83 372.63 567.83C372.63 567.83 361.47 574.99 374.58 592.65C374.58 592.65 374.58 599.04 373.71 599.98C373.71 599.98 373.71 599.98 373.71 599.98C372.78 603.01 372.03 606.09 371.47 609.21C370.92 612.53 370.69 615.91 371.58 617.64C373.71 621.82 386.47 621.48 386.47 621.48C386.47 621.48 386.47 621.48 386.47 621.48C386.57 621.46 386.67 621.44 386.78 621.44C391.65 620.92 396.51 622.39 400.29 625.5C405.14 629.39 423.53 627.69 433.5 626.45C437.41 625.94 440.02 625.5 440.02 625.5C440.14 625.06 440.19 624.6 440.15 624.14C440.15 624.14 440.15 624.14 440.15 624.14C440.04 621.69 438.13 616.32 425.12 611.53C425.12 611.53 412.89 603.31 413.06 596.14C413.04 596.14 412.95 596.14 412.78 596.14C411.94 596.14 411.47 596.14 411.38 596.14C412.26 596.11 412.89 596.11 412.89 596.11C412.89 596.11 408.1 578.63 410.05 577.21C412.01 575.78 406.15 556.41 406.15 556.41C406.15 556.41 402.79 523.89 402.6 521.63C402.62 519.67 402.92 517.73 403.49 515.86C403.4 514.08 402.69 499.81 402.6 498.02C402.6 498.02 402.43 492.1 402.6 490.17C402.58 488.49 402.45 486.82 402.21 485.17C402.12 484.51 402.04 483.82 401.94 483.13C406.53 481.97 409.5 480.9 409.5 480.9C409.45 474.7 409.03 425.05 408.97 418.85C412.87 411.29 413.59 394.69 413.57 382.93C413.57 375.37 413.23 369.77 413.23 369.77C413.76 368.9 418.02 361.95 418.55 361.08C418.55 361.08 419.78 350.68 417.83 348.41C416.97 347.38 417.36 346.31 418.07 345.43C418.44 345.12 418.84 344.85 419.25 344.6C419.2 344.53 419.16 344.46 419.13 344.39C419.5 344.08 419.89 343.8 420.31 343.55C420.31 343.55 418.42 340.62 420.11 339.38C421.7 340.46 423.12 341.32 424.19 341.93C424.12 342.62 424.04 343.02 424.04 343.02C424.09 342.92 424.45 342.17 424.5 342.07C425.54 342.66 426.17 343.02 426.17 343.02C426.17 343.02 434.51 326.41 434.33 323.97C434.15 321.53 440 311.21 440 311.21C440 311.21 440.71 305.79 443.9 303.52C447.1 301.25 446.38 284.81 446.38 284.81C446.38 284.81 447.27 276.25 449.39 272.76C451.52 269.27 447.49 264.52 447.49 264.52C447.49 264.52 443.77 264 443.77 258.59ZM287.97 257.24C288.07 259.61 288.12 260.93 288.13 261.2C287.19 259.68 286.51 258.59 286.51 258.59C286.7 258.41 287.19 257.96 287.97 257.24Z" id="a8gZSz82gI"></path><linearGradient id="gradienta93rY0Ye0" gradientUnits="userSpaceOnUse" x1="347.99" y1="638.09" x2="347.99" y2="56.44"><stop style="stop-color: #808080;stop-opacity: 0.25" offset="0%"></stop><stop style="stop-color: #808080;stop-opacity: 0.12" offset="54%"></stop><stop style="stop-color: #808080;stop-opacity: 0.1" offset="100%"></stop></linearGradient><path d="M426.66 335.83C425.43 341.05 424.75 343.95 424.62 344.53C424.62 344.53 408.27 336.17 405.33 325.58C402.39 314.99 410.25 310.96 410.25 310.96C411.27 311.39 416.35 313.53 425.5 317.4L426.66 335.83Z" id="a22MsK2R6f"></path><path d="M426.66 335.83C425.43 341.05 424.75 343.95 424.62 344.53C424.62 344.53 408.27 336.17 405.33 325.58C402.39 314.99 410.25 310.96 410.25 310.96C411.27 311.39 416.35 313.53 425.5 317.4L426.66 335.83Z" id="clLFqgU28"></path><path d="M309.36 638.06C303.84 638.43 300.94 635.05 299.45 631.79C298.64 629.99 298.11 628.07 297.88 626.11C297.97 625.12 298.43 620.12 299.25 611.13L299.97 603.16L322.06 597.42L325.19 606.99C325.36 607.42 325.46 607.66 325.48 607.71C326.73 610.91 331.78 623.9 331.62 626.62C331.6 628.03 332.16 629.4 333.16 630.4C333.68 630.94 334.25 631.41 334.88 631.8C334.88 631.8 319.76 637.36 309.36 638.06Z" id="a2urJf7gAb"></path><path d="M438.01 625.55C438.01 625.55 405.67 630.93 399.05 625.55C395.29 622.36 390.36 620.91 385.48 621.55C385.48 621.55 372.96 621.89 370.87 617.77C370 616.04 370.23 612.68 370.77 609.38C371.32 606.28 372.05 603.21 372.96 600.2C372.99 600.17 373.16 600.04 373.46 599.8L376.44 597.41L411.3 596.38C411.46 596.38 411.55 596.38 411.56 596.38C411.39 603.5 423.39 611.68 423.39 611.68C436.16 616.41 438.04 621.75 438.14 624.19C438.18 624.64 438.14 625.11 438.01 625.55Z" id="bhK1i4HyD"></path><path d="M438.01 625.55C438.01 625.55 405.67 630.93 399.06 625.55C395.3 622.36 390.36 620.91 385.48 621.55C385.48 621.55 372.95 621.89 370.86 617.77C370 616.04 370.22 612.68 370.76 609.37C375.58 609.86 383.19 611.06 386.17 613.93C390.69 618.28 398.35 622.63 403.04 622.98C406.74 623.2 428.78 623.9 438.15 624.19C438.19 624.64 438.14 625.11 438.01 625.55Z" id="c2ig7RFqd"></path><path d="M309.36 638.06C303.84 638.43 300.94 635.05 299.45 631.79C303.3 633.08 308.64 634.43 311.45 633.19C314.78 631.71 326.58 630.76 333.19 630.36C333.69 630.91 334.26 631.4 334.88 631.8C334.88 631.8 319.76 637.36 309.36 638.06Z" id="jgukNdY8a"></path><path d="M332.81 155.5C333.69 153.61 334.22 151.57 334.37 149.49C334.62 146.66 334.66 143.81 334.48 140.98C334.2 136.33 333.64 131.71 332.81 127.13C332.81 127.13 371.76 128.01 369.49 133.75C368.83 135.44 368.72 138.36 368.9 141.62C369.09 144.88 369.56 148.6 370.05 151.73C370.72 156.01 371.41 159.29 371.41 159.29C371.41 159.29 369.02 162.63 367.63 162.81C366.24 162.99 375.23 190.8 357.33 183.86C344.85 179.01 328.8 162.99 332.81 155.5Z" id="dXtzH5uHi"></path><path d="M325.44 607.66C325.27 607.86 325.17 607.96 325.15 607.98C313.5 593.9 299.42 611.46 299.42 611.46C299.41 611.44 299.34 611.31 299.21 611.08L299.93 603.12L322.02 597.37L325.15 606.94L325.44 607.66Z" id="bx8FLpJ3D"></path><path d="M398.54 601.21C398.54 601.21 372.07 602.07 373.02 601.21C373.29 600.77 373.46 600.27 373.51 599.76C373.71 599.6 374.7 598.8 376.49 597.37C397.4 596.75 409.02 596.41 411.35 596.34C411.48 597 411.58 597.37 411.58 597.37C408.97 598.14 403.08 597.2 398.54 601.21Z" id="fsD4RjaaF"></path><path d="M336.93 491.61C336.15 496.16 335.93 500.78 336.28 505.38C336.63 511.99 336.28 556.34 336.28 556.34C336.28 556.34 328.8 568.16 324.63 572.33C320.45 576.5 333.13 583.98 333.13 583.98C335.02 594.77 323.57 606.94 323.57 606.94C311.92 592.86 297.84 610.41 297.84 610.41C297.84 610.41 290.18 597.18 288.27 592.45C286.36 587.73 295.75 584.47 299.05 582.54C302.35 580.61 298.88 569.3 298.88 569.3C298.88 569.3 296.1 559.39 292.79 550.34C289.48 541.3 296.44 496.27 296.44 496.27C296.44 496.27 296.8 488.27 297.66 485.48C298.09 483.47 298.17 481.4 297.91 479.35C297.86 478.66 297.79 478.1 297.74 477.7C297.7 477.3 297.66 477.13 297.66 477.13C297.67 477.12 297.71 477.04 297.79 476.91C300.63 471.62 302.2 468.68 302.52 468.1C302.52 468.1 340.64 481.22 338.37 486.76C337.74 488.33 337.26 489.95 336.93 491.61Z" id="b2eHqyyQ6z"></path><path d="M398.54 600.11C398.54 600.11 372.07 600.98 373.02 600.11C373.02 600.11 373.88 592.81 373.88 592.81C361.01 575.24 371.99 568.11 371.99 568.11C371.99 568.11 366.25 540.46 365.21 530.21C364.48 523.05 363.58 503.74 363.1 492.8C362.89 488.08 362.77 484.82 362.77 484.82C363.46 484.68 366.94 483.99 373.19 482.75L374.54 482.48C389.75 479.43 398.2 477.73 399.89 477.39C399.89 477.39 400.59 482.11 401.06 485.98C401.3 487.63 401.43 489.29 401.45 490.96C401.29 492.85 401.45 498.78 401.45 498.78C401.54 500.55 402.23 514.74 402.32 516.51C401.76 518.37 401.47 520.31 401.45 522.25C401.63 524.52 404.93 556.86 404.93 556.86C404.93 556.86 410.67 576.16 408.71 577.55C406.75 578.94 411.58 596.33 411.58 596.33C408.97 597.09 403.08 596.15 398.54 600.11Z" id="bneInYlGz"></path><path d="M368.9 141.65C358.26 148.06 344.88 147.81 334.48 141.01C334.2 136.36 333.64 131.74 332.81 127.16C332.81 127.16 371.76 128.04 369.49 133.78C368.83 135.47 368.72 138.39 368.9 141.65Z" id="jAipJ1laO"></path><path d="M352.58 145.63C334.72 145.84 320.07 131.54 319.86 113.68C319.86 113.42 319.86 113.17 319.86 112.91C319.86 95.04 334.34 80.56 352.2 80.56C370.07 80.56 384.55 95.04 384.55 112.91C384.74 130.76 370.44 145.42 352.58 145.63Z" id="dawy3Xr6PA"></path><path d="M332.81 155.5C333.69 153.61 334.22 151.57 334.37 149.49C335.5 150.42 341.2 155.11 351.45 163.53L362.01 172.2C366.83 159.93 369.51 153.12 370.05 151.76C370.72 156.04 371.41 159.32 371.41 159.32C371.41 159.32 369.02 162.65 367.63 162.83C366.24 163.01 375.23 190.8 357.33 183.86C344.85 179.01 328.8 162.99 332.81 155.5Z" id="d3vEQq6RqM"></path><path d="M387.23 485.55L368.63 486.77L320.45 347.83L328.35 182.87L330.03 148.02L351.45 165.61L362.01 174.28L370.28 153.23L385.66 166.63L401.5 245.93L401.5 245.93L387.23 485.55Z" id="g1MdnMDdMS"></path><path d="M338.5 491.61C324.95 489.53 311.79 485.42 299.46 479.43C299.44 479.42 299.35 479.38 299.2 479.3L299.29 477.77L299.29 476.98C302.12 471.69 303.7 468.76 304.01 468.17C304.01 468.17 342.2 481.22 339.93 486.76C339.3 488.33 338.82 489.95 338.5 491.61Z" id="chVLZhFf2"></path><path d="M373.5 491.65C370.04 492.24 366.55 492.64 363.04 492.85C362.84 488.13 362.71 484.86 362.71 484.86C363.41 484.72 366.9 484.02 373.19 482.75C373.35 487.5 373.46 490.46 373.5 491.65Z" id="b8ZLV9O2Mi"></path><path d="M374.71 488.47C374.7 488.07 374.66 486.07 374.58 482.48C389.79 479.43 398.24 477.73 399.93 477.39C399.93 477.39 400.6 482.08 401.1 485.98C394.38 487.73 383.99 489.69 374.71 488.47Z" id="a5VfbuA22"></path><path d="M374.54 489.56C335.78 496.18 300.29 477.21 300.29 477.21C300.32 476.56 300.59 471.42 300.63 470.78C300.63 470.78 301.51 397.91 299.07 392.32C296.63 386.74 294.73 358.45 296.11 354.13C297.49 349.81 291.07 284.58 291.07 284.58C291 282.82 290.66 274 290.03 258.12L251.95 242.64C262.16 221.36 267.83 209.53 268.96 207.17C271.26 202.19 273.24 197.08 274.88 191.85C277.84 182.64 291.57 173.59 291.57 173.59C291.57 173.59 305.66 164.55 311.23 164.89C316.79 165.23 324.09 156.9 324.09 156.9C329.48 143.16 334.36 149.34 334.36 149.34C334.36 150 334.36 149.34 334.09 151.37C332.2 166.44 364.66 214.09 365.12 214.94C365.12 214.94 365.12 214.94 365.12 214.94L368.25 290.24L371.38 385.53C373.07 441.01 374.12 475.69 374.54 489.56Z" id="c1h94dVUow"></path><path d="M373.5 489.56C334.74 496.18 299.24 477.21 299.24 477.21C299.27 476.56 299.55 471.42 299.59 470.78C299.59 470.78 300.46 397.91 298.02 392.32C298.02 392.32 293.68 358.42 295.07 354.06C296.46 349.7 290 284.55 290 284.55C289.93 282.78 289.58 273.96 288.95 258.08L250.88 242.6C261.09 221.32 266.76 209.49 267.89 207.13C270.19 202.16 272.16 197.05 273.81 191.82C276.77 182.64 290.55 173.58 290.55 173.58C290.55 173.58 304.64 164.54 310.19 164.89C315.75 165.23 323.09 156.9 323.09 156.9C328.49 143.16 334.43 149.34 334.43 149.34C334.43 150 333.86 150.28 334.17 151.37C338.33 165.99 363.7 214.09 364.16 214.94C364.16 214.94 364.16 214.94 364.16 214.94L367.29 290.24L370.35 385.57C372.03 441.03 373.08 475.7 373.5 489.56Z" id="fhz08OaUD"></path><path d="M336.8 190.11C336.8 189.54 336.8 184.95 336.8 184.38C336 182.49 331.22 183.64 327.35 184.96C327.46 182.64 328.02 171.02 329.01 150.11C330.15 151.05 330.78 151.58 330.91 151.68C335.04 166.29 362.6 216.22 363.05 217.06C358.89 215.32 342.05 195.5 336.8 190.11Z" id="dJnIOyJ0m"></path><path d="M337.84 188.03C337.84 187.46 337.84 182.86 337.84 182.29C337.04 180.4 332.27 181.55 328.39 182.87C328.5 180.55 329.05 168.95 330.03 148.06C331.16 149 331.79 149.52 331.92 149.62C336.09 164.21 363.64 214.13 364.1 214.98C359.92 213.24 343.1 193.42 337.84 188.03Z" id="b2ZKjAuxhD"></path><path d="M300.29 340.7C300.81 340.7 327.24 337.92 327.24 337.92C327.24 337.92 343.24 369.4 342.19 377.05C341.14 384.7 339.24 391.48 332.81 390.28C326.37 389.08 298.16 391.23 298.16 391.23C298.59 381.12 299.86 350.81 300.29 340.7Z" id="d1mY3nCGtj"></path><path d="M299.24 338.61C299.77 338.61 326.2 335.83 326.2 335.83C326.2 335.83 342.19 367.36 341.15 374.92C340.11 382.48 338.19 389.36 331.77 388.15C325.34 386.95 297.11 389.1 297.11 389.1C297.54 379 298.81 348.71 299.24 338.61Z" id="bsGhl0h7l"></path><path d="M319.16 323.88C319.16 323.88 343.41 336.92 343.93 340.89C343.93 340.89 331.59 339.15 328.81 338.45C326.98 338.02 325.12 337.73 323.24 337.58C322 337.62 315.82 337.78 304.7 338.08C312.41 330.51 317.23 325.77 319.16 323.88Z" id="a383IZippy"></path><path d="M356.28 213.58C354.87 213.58 353.72 214.73 353.72 216.14C353.72 217.55 354.87 218.69 356.28 218.69C357.69 218.69 358.83 217.55 358.83 216.14C358.83 214.73 357.69 213.58 356.28 213.58Z" id="a1o01UT1D"></path><path d="M356.28 212.55C354.87 212.55 353.72 213.69 353.72 215.1C353.72 216.51 354.87 217.65 356.28 217.65C357.69 217.65 358.83 216.51 358.83 215.1C358.83 213.69 357.69 212.55 356.28 212.55Z" id="c2XfTy2ots"></path><path d="M360.97 324.07C359.56 324.07 358.42 325.21 358.42 326.62C358.42 328.03 359.56 329.17 360.97 329.17C362.38 329.17 363.53 328.03 363.53 326.62C363.53 325.21 362.38 324.07 360.97 324.07Z" id="e3eVhahWhs"></path><path d="M360.97 323.02C359.56 323.02 358.42 324.16 358.42 325.57C358.42 326.98 359.56 328.12 360.97 328.12C362.38 328.12 363.53 326.98 363.53 325.57C363.53 324.16 362.38 323.02 360.97 323.02Z" id="bbhtiySbyL"></path><path d="M358.83 268.83C357.42 268.83 356.28 269.97 356.28 271.38C356.28 272.79 357.42 273.93 358.83 273.93C360.24 273.93 361.38 272.79 361.38 271.38C361.38 269.97 360.24 268.83 358.83 268.83Z" id="aFcYx033h"></path><path d="M358.83 267.79C357.42 267.79 356.28 268.93 356.28 270.34C356.28 271.75 357.42 272.89 358.83 272.89C360.24 272.89 361.38 271.75 361.38 270.34C361.38 268.93 360.24 267.79 358.83 267.79Z" id="c8ssD57tN"></path><path d="M417.66 340.84C417.66 340.84 417.83 345.01 417.83 345.01C417.83 345.01 413.49 347.55 415.4 349.84C415.4 349.84 416.1 362.45 416.1 362.45C415.58 363.32 411.41 370.27 410.88 371.14C410.88 371.14 411.2 376.71 411.21 384.23C411.21 395.97 410.52 412.48 406.71 420C406.76 426.17 407.17 475.56 407.22 481.74C407.22 481.74 388.94 488.42 373.65 486.38C373.42 476.47 371.61 397.22 371.38 387.31C371.38 387.31 374.69 331.14 375.91 320.36C376.62 314.77 376.91 309.13 376.78 303.49C376.78 303.49 376.26 286.62 374.51 278.81C374.51 278.81 372.62 244.89 372.43 235.51C372.35 231.02 372.58 217.91 372.85 205.46C373.14 191.83 373.47 178.99 373.47 178.99C373.13 176.26 370.37 154.41 370.02 151.68C370.02 151.68 373.47 151.34 374.51 152.72C374.98 153.15 375.48 153.54 376.02 153.88C376.02 153.88 376.02 153.88 376.02 153.88C381.99 157.91 403.03 170.29 403.03 170.29C403.03 170.29 414.67 174.92 417.46 181.56C420.25 188.2 422.19 192.9 423.54 194.79C424.89 196.68 425.63 205.57 425.63 205.57C425.63 205.57 429.64 221.92 432.77 224.69C435.9 227.46 438.14 245.04 438.14 245.04C435.38 247.22 413.26 264.61 410.5 266.78C410.5 266.78 408.07 302.95 407.55 304.35C407.03 305.75 417.66 337.05 417.66 337.05C417.66 337.81 419.4 339.66 417.66 340.84Z" id="a31UgQEuQ"></path><path d="M418.71 340.84C418.71 340.84 418.87 345.01 418.87 345.01C418.87 345.01 414.53 347.55 416.44 349.84C416.44 349.84 417.14 362.45 417.14 362.45C416.62 363.32 412.46 370.27 411.94 371.14C411.94 371.14 412.25 376.71 412.28 384.23C412.28 395.97 411.59 412.48 407.77 420C407.83 426.17 408.24 475.56 408.29 481.74C408.29 481.74 390.02 488.42 374.73 486.38C374.5 476.47 372.69 397.22 372.47 387.31C372.47 387.31 375.77 331.14 377 320.36C377.71 314.77 378 309.13 377.86 303.49C377.86 303.49 377.34 286.62 375.6 278.81C375.6 278.81 373.71 244.89 373.51 235.51C373.42 231.02 373.66 217.91 373.92 205.46C374.22 191.83 374.55 178.99 374.55 178.99C374.09 176.22 370.45 154.08 369.99 151.31C369.99 151.31 374.55 151.31 375.6 152.72C376.06 153.16 376.57 153.55 377.11 153.88C377.11 153.88 377.11 153.88 377.11 153.88C383.06 157.91 404.11 170.29 404.11 170.29C404.11 170.29 415.72 174.92 418.56 181.56C421.39 188.2 423.29 192.9 424.64 194.79C425.99 196.68 426.73 205.57 426.73 205.57C426.73 205.57 430.73 221.92 433.86 224.69C436.99 227.46 439.25 245.04 439.25 245.04C436.49 247.22 414.37 264.61 411.6 266.78C411.6 266.78 409.17 302.95 408.64 304.35C408.11 305.75 418.71 337.05 418.71 337.05C418.71 337.81 420.44 339.66 418.71 340.84Z" id="aln906dS"></path><path d="M385.6 187.01L388.1 194.29C380.21 202.23 375.83 206.64 374.95 207.53C375.25 193.9 375.58 181.06 375.58 181.06C375.12 178.29 371.48 156.16 371.02 153.39C371.02 153.39 375.58 153.39 376.63 154.8C377.09 155.24 377.6 155.63 378.14 155.96C378.14 155.96 378.14 155.96 378.14 155.96L389.31 188.19L385.6 187.01Z" id="caUSJcvaUh"></path><path d="M384.53 184.92L387.03 192.19C379.15 200.13 374.77 204.54 373.9 205.43C374.18 191.81 374.52 178.96 374.52 178.96C374.06 176.19 370.41 154.05 369.95 151.28C369.95 151.28 374.52 151.28 375.56 152.69C376.02 153.13 376.53 153.52 377.07 153.85C377.07 153.85 377.07 153.85 377.07 153.85L388.31 186.11L384.53 184.92Z" id="a2TZaRcr9"></path><path d="M382.94 122.93C382.58 122.99 382.21 122.91 381.92 122.69C381.67 114.18 377.49 106.18 372.34 99.39C370.89 97.34 369.13 95.52 367.14 94C365.12 92.48 362.6 91.77 360.09 92.01C357.25 92.39 354.74 94.32 351.88 94.57C348.1 94.88 344.72 92.26 340.96 92.14C337.88 92.16 334.95 93.52 332.94 95.86C330.96 98.19 329.5 100.9 328.64 103.83C327.15 108.27 326.34 112.91 326.24 117.59C326.19 120.24 325.93 123.56 323.48 124.52C323.85 120.59 322.56 116.68 319.91 113.75C319.91 113.74 319.86 113.69 319.86 113.68C319.86 113.42 319.86 113.17 319.86 112.91C319.86 95.04 334.34 80.56 352.2 80.56C370.07 80.56 384.55 95.04 384.55 112.91C384.53 116.31 384 119.7 382.94 122.93Z" id="c47GVgVe1w"></path><path d="M349.91 60.32C347.3 61.1 344.83 62.35 342.17 62.99C336.5 64.36 329.88 62.87 325.02 66.19C322.31 68.08 320.69 71.07 319.17 73.98C318.8 74.7 315.77 80.45 315.39 81.17C313.33 85.11 311.25 89.12 310.39 93.46C309.53 97.8 310.05 102.66 312.8 106.16C314.8 108.69 317.77 110.29 319.94 112.68C322.58 115.63 323.87 119.54 323.49 123.48C325.95 122.54 326.2 119.2 326.25 116.55C326.36 111.87 327.17 107.23 328.66 102.79C329.52 99.86 330.98 97.15 332.96 94.82C334.97 92.48 337.89 91.12 340.98 91.09C344.76 91.22 348.16 93.84 351.9 93.52C354.74 93.28 357.25 91.35 360.1 90.97C362.62 90.73 365.14 91.44 367.16 92.96C369.15 94.48 370.91 96.29 372.35 98.35C377.51 105.15 381.69 113.11 381.94 121.65C383.01 122.42 384.55 121.4 385.08 120.19C385.61 118.98 385.63 117.57 386.3 116.41C387.07 115.08 388.56 114.36 389.72 113.36C392.67 110.82 393.41 106.53 393.29 102.65C393.18 98.76 392.42 94.82 393.16 91C393.6 88.67 394.61 86.47 395.15 84.15C395.7 81.83 395.77 79.24 394.47 77.24C392.58 74.32 388.6 73.73 385.13 73.46C381.19 73.12 377.67 73.55 375.15 70.24C373.97 68.51 372.64 66.88 371.18 65.38C370.66 64.88 365.62 61.76 365.62 61.55C360.71 59.24 355.13 58.8 349.91 60.32Z" id="bcE1yyTao"></path><path d="M262.86 260.89L252.99 242.63C251.11 259.53 250.07 268.92 249.86 270.8C249.86 270.8 251.6 283.32 251.25 285.24C251.25 285.24 258.38 304.36 258.38 304.36C258.38 304.36 283.08 348.36 293.16 350.62C295.43 349 306.77 340.88 327.19 326.27C321.77 319.38 318.76 315.56 318.15 314.79C318.15 314.79 315.03 313.57 314.24 314.79C314.24 314.79 297.45 285.93 295.72 283.85C293.99 281.77 294.32 277.58 294.32 277.58C294.32 277.58 291.72 274.8 292.58 272.19C293.45 269.58 287.59 260.55 287.59 260.55C287.95 260.21 289.75 258.53 292.98 255.51L262.86 260.89Z" id="c5pkO5RX"></path><path d="M253.51 240.54L250.9 242.63C249.02 259.53 247.98 268.92 247.77 270.8C247.77 270.8 249.51 283.32 249.16 285.24C249.16 285.24 256.3 304.36 256.3 304.36C256.3 304.36 280.99 348.36 291.07 350.62C293.34 349 304.71 340.88 325.16 326.27C319.73 319.38 316.72 315.56 316.11 314.79C316.11 314.79 312.98 313.57 312.2 314.79C312.2 314.79 295.42 285.93 293.68 283.85C291.94 281.77 292.29 277.58 292.29 277.58C292.29 277.58 289.68 274.8 290.55 272.19C291.42 269.58 285.5 260.55 285.5 260.55C285.86 260.21 287.66 258.53 290.89 255.51L253.51 240.54Z" id="a1FWTktuaQ"></path><path d="M416.1 363.55C415.58 364.41 411.41 371.32 410.88 372.18C410.88 372.18 411.2 377.76 411.21 385.28C410.34 385.56 403.32 387.75 402.44 388.02C399.69 388.88 396.77 387.35 395.91 384.59C395.74 384.04 395.66 383.46 395.67 382.88C395.78 379.63 396.28 363.37 397.2 334.11C409.48 338.8 416.3 341.4 417.66 341.92C415.92 343.13 417.83 346.1 417.83 346.1C417.83 346.1 413.49 348.63 415.4 350.93C417.29 353.23 415.96 361.03 416.1 363.55Z" id="a1lEsxBydg"></path><path d="M417.14 362.5C416.62 363.36 412.46 370.28 411.94 371.14C411.94 371.14 412.25 376.71 412.28 384.23C411.39 384.51 404.24 386.74 403.35 387.02C400.66 387.86 397.81 386.37 396.96 383.68C396.79 383.14 396.72 382.57 396.73 382C396.83 378.74 397.34 362.42 398.26 333.06C410.53 337.76 417.35 340.37 418.71 340.89C416.96 342.1 418.87 345.07 418.87 345.07C418.87 345.07 414.53 347.59 416.44 349.89C418.33 352.18 417 359.98 417.14 362.5Z" id="b17y3RM1f3"></path><path d="M423.23 326.62C423.23 326.62 421.84 335.49 418.36 336.01C418.36 336.01 413.32 350.37 409.85 349.89C409.85 349.89 408.68 337.02 408.8 334.62C408.8 334.62 405.02 322.27 407.93 320.01C407.93 320.01 420.11 320.01 420.11 320.01C420.73 321.33 422.6 325.3 423.23 326.62Z" id="aKrQFe94s"></path><path d="M430.58 258.28C434.51 250.34 436.7 245.93 437.13 245.04C437.13 245.04 439.75 255.13 439.75 260.52C439.75 260.52 443.4 266.43 443.4 266.43C443.4 266.43 447.4 271.16 445.29 274.61C445.29 274.61 442.34 286.61 442.34 286.61C442.34 286.61 443.03 302.95 439.9 305.21C439.9 305.21 436.07 312.87 436.07 312.87C436.07 312.87 430.34 323.12 430.52 325.56C430.52 325.56 422.52 344.51 422.52 344.51C422.52 344.51 426.52 323.99 403.22 315.12C403.22 315.12 403.04 308.17 404.78 306.26C406.52 304.35 409.23 303.42 407.53 293.82C405.83 284.21 407.04 272.64 407.04 270.32C407.04 268 412.25 253.57 412.25 253.57C414.7 254.2 420.81 255.77 430.58 258.28Z" id="a34nqGh9Ql"></path><path d="M433.49 243.15C436.93 244.29 438.84 244.92 439.22 245.04C439.22 245.04 441.84 255.13 441.84 260.52C441.84 260.52 445.49 266.43 445.49 266.43C445.49 266.43 449.49 271.16 447.38 274.61C447.38 274.61 444.42 286.61 444.42 286.61C444.42 286.61 445.12 302.95 441.99 305.21C441.99 305.21 438.21 312.87 438.21 312.87C438.21 312.87 432.47 323.12 432.65 325.56C432.65 325.56 424.65 344.51 424.65 344.51C424.65 344.51 428.65 323.99 405.34 315.12C405.34 315.12 405.17 308.17 406.91 306.26C408.65 304.35 411.37 303.42 409.66 293.82C407.96 284.21 409.17 272.64 409.17 270.32C409.17 268 414.39 253.57 414.39 253.57C416.94 252.18 423.31 248.71 433.49 243.15Z" id="a9BwNTrOo"></path><path d="M322.07 584.59C328.06 588.76 306.94 586.16 306.94 586.16C309.97 585.84 316.07 580.42 322.07 584.59Z" id="b1HGYvbh7q"></path><path d="M392.78 574.68C399.57 581.99 377.91 568.42 377.91 568.42C380.89 569.67 386 567.38 392.78 574.68Z" id="a1wFqGu5Dm"></path><path d="M386.29 114.33C385.63 115.48 385.61 116.89 385.08 118.11C384.55 119.33 383.01 120.34 381.93 119.57C381.68 111.06 377.5 103.07 372.35 96.27C370.91 94.22 369.15 92.4 367.16 90.89C365.13 89.37 362.62 88.65 360.09 88.89C357.26 89.27 354.76 91.2 351.9 91.45C348.12 91.76 344.73 89.14 340.97 89.02C337.89 89.04 334.96 90.4 332.96 92.74C330.98 95.07 329.52 97.78 328.66 100.71C327.17 105.15 326.36 109.79 326.25 114.47C326.2 117.11 325.95 120.4 323.51 121.38C323.57 122.09 323.57 122.79 323.51 123.49C325.98 122.55 326.23 119.21 326.28 116.56C326.39 111.88 327.2 107.24 328.68 102.8C329.55 99.87 331.01 97.16 332.98 94.83C334.99 92.49 337.92 91.13 341 91.1C344.78 91.23 348.18 93.85 351.93 93.53C354.76 93.29 357.28 91.36 360.12 90.98C362.64 90.74 365.16 91.45 367.18 92.97C369.18 94.49 370.93 96.3 372.37 98.36C377.53 105.16 381.71 113.12 381.96 121.66C383.04 122.43 384.58 121.41 385.11 120.2C385.64 118.99 385.65 117.57 386.32 116.42C387.09 115.09 388.59 114.37 389.75 113.37C392.7 110.83 393.43 106.54 393.32 102.66C393.32 102.54 393.32 102.42 393.32 102.3C393.13 105.68 392.23 109.11 389.72 111.28C388.56 112.29 387.06 113 386.29 114.33Z" id="d1csPQIHmc"></path><path d="M312.8 104.09C311.12 101.85 310.16 99.15 310.05 96.35C309.76 99.85 310.73 103.34 312.8 106.18C314.8 108.71 317.77 110.31 319.93 112.7C322.02 115.04 323.28 118 323.5 121.13C323.79 117.29 322.5 113.49 319.93 110.62C317.77 108.23 314.8 106.62 312.8 104.09Z" id="bb75t5kSA"></path><path d="M393.15 88.92C392.88 90.5 392.78 92.11 392.86 93.71C392.89 92.8 392.99 91.9 393.15 91.01C393.6 88.68 394.6 86.48 395.15 84.16C395.47 82.88 395.58 81.56 395.47 80.25C395.41 80.86 395.3 81.47 395.15 82.07C394.6 84.39 393.6 86.59 393.15 88.92Z" id="c6m5URxMg"></path></defs><g><g><g><use xlink:href="#a5y4Cw5WX" opacity="1" fill="#e5ecfd" fill-opacity="1"></use><g><use xlink:href="#a5y4Cw5WX" opacity="1" fill-opacity="0" stroke="#000000" stroke-width="1" stroke-opacity="0"></use></g></g><g><use xlink:href="#eLzcT3dfE" opacity="1" fill="#e5ecfd" fill-opacity="1"></use><g><use xlink:href="#eLzcT3dfE" opacity="1" fill-opacity="0" stroke="#000000" stroke-width="1" stroke-opacity="0"></use></g></g><g><use xlink:href="#e166nzzl5Z" opacity="1" fill="#e5ecfd" fill-opacity="1"></use><g><use xlink:href="#e166nzzl5Z" opacity="1" fill-opacity="0" stroke="#000000" stroke-width="1" stroke-opacity="0"></use></g></g><g><use xlink:href="#bsXThZDWK" opacity="1" fill="#e5ecfd" fill-opacity="1"></use><g><use xlink:href="#bsXThZDWK" opacity="1" fill-opacity="0" stroke="#000000" stroke-width="1" stroke-opacity="0"></use></g></g><g><use xlink:href="#j5hj6wINi" opacity="1" fill="#e5ecfd" fill-opacity="1"></use><g><use xlink:href="#j5hj6wINi" opacity="1" fill-opacity="0" stroke="#000000" stroke-width="1" stroke-opacity="0"></use></g></g><g><use xlink:href="#b5KXEr9cIZ" opacity="1" fill="#e5ecfd" fill-opacity="1"></use><g><use xlink:href="#b5KXEr9cIZ" opacity="1" fill-opacity="0" stroke="#000000" stroke-width="1" stroke-opacity="0"></use></g></g><g><use xlink:href="#c2Bi7ig8Jx" opacity="1" fill="#e5ecfd" fill-opacity="1"></use><g><use xlink:href="#c2Bi7ig8Jx" opacity="1" fill-opacity="0" stroke="#000000" stroke-width="1" stroke-opacity="0"></use></g></g><g><use xlink:href="#b6cvnsT7qY" opacity="1" fill="#cedcfd" fill-opacity="1"></use><g><use xlink:href="#b6cvnsT7qY" opacity="1" fill-opacity="0" stroke="#000000" stroke-width="1" stroke-opacity="0"></use></g></g><g><use xlink:href="#fVhKt7l4v" opacity="1" fill="#cedcfd" fill-opacity="1"></use><g><use xlink:href="#fVhKt7l4v" opacity="1" fill-opacity="0" stroke="#000000" stroke-width="1" stroke-opacity="0"></use></g></g><g><use xlink:href="#a9w2lFNMOt" opacity="1" fill="#cedcfd" fill-opacity="1"></use><g><use xlink:href="#a9w2lFNMOt" opacity="1" fill-opacity="0" stroke="#000000" stroke-width="1" stroke-opacity="0"></use></g></g><g><use xlink:href="#e5wogDzbj" opacity="1" fill="#cedcfd" fill-opacity="1"></use><g><use xlink:href="#e5wogDzbj" opacity="1" fill-opacity="0" stroke="#000000" stroke-width="1" stroke-opacity="0"></use></g></g><g><use xlink:href="#c1in3XPOSt" opacity="1" fill="#cedcfd" fill-opacity="1"></use><g><use xlink:href="#c1in3XPOSt" opacity="1" fill-opacity="0" stroke="#000000" stroke-width="1" stroke-opacity="0"></use></g></g><g><use xlink:href="#bF4d59A0s" opacity="1" fill="#cedcfd" fill-opacity="1"></use><g><use xlink:href="#bF4d59A0s" opacity="1" fill-opacity="0" stroke="#000000" stroke-width="1" stroke-opacity="0"></use></g></g><g><use xlink:href="#b3XzGeE2QZ" opacity="1" fill="#cedcfd" fill-opacity="1"></use><g><use xlink:href="#b3XzGeE2QZ" opacity="1" fill-opacity="0" stroke="#000000" stroke-width="1" stroke-opacity="0"></use></g></g><g><use xlink:href="#i2vdMb2S9Q" opacity="1" fill="#6c63ff" fill-opacity="1"></use><g><use xlink:href="#i2vdMb2S9Q" opacity="1" fill-opacity="0" stroke="#000000" stroke-width="1" stroke-opacity="0"></use></g></g><g><use xlink:href="#c611viUlU" opacity="1" fill="#cedcfd" fill-opacity="1"></use><g><use xlink:href="#c611viUlU" opacity="1" fill-opacity="0" stroke="#000000" stroke-width="1" stroke-opacity="0"></use></g></g><g><use xlink:href="#dRbug9D2u" opacity="1" fill="#6c63ff" fill-opacity="1"></use><g><use xlink:href="#dRbug9D2u" opacity="1" fill-opacity="0" stroke="#000000" stroke-width="1" stroke-opacity="0"></use></g></g><g><use xlink:href="#h1hMBkBOF5" opacity="1" fill="#cedcfd" fill-opacity="1"></use><g><use xlink:href="#h1hMBkBOF5" opacity="1" fill-opacity="0" stroke="#000000" stroke-width="1" stroke-opacity="0"></use></g></g><g><use xlink:href="#beONvvwPC" opacity="1" fill="#6c63ff" fill-opacity="1"></use><g><use xlink:href="#beONvvwPC" opacity="1" fill-opacity="0" stroke="#000000" stroke-width="1" stroke-opacity="0"></use></g></g><g><use xlink:href="#a9oyfp6oY" opacity="1" fill="#cedcfd" fill-opacity="1"></use><g><use xlink:href="#a9oyfp6oY" opacity="1" fill-opacity="0" stroke="#000000" stroke-width="1" stroke-opacity="0"></use></g></g><g><use xlink:href="#kIF08ePj9" opacity="1" fill="#6c63ff" fill-opacity="1"></use><g><use xlink:href="#kIF08ePj9" opacity="1" fill-opacity="0" stroke="#000000" stroke-width="1" stroke-opacity="0"></use></g></g><g><use xlink:href="#a5muFS3gI" opacity="1" fill="#cedcfd" fill-opacity="1"></use><g><use xlink:href="#a5muFS3gI" opacity="1" fill-opacity="0" stroke="#000000" stroke-width="1" stroke-opacity="0"></use></g></g><g><use xlink:href="#c1w4Wi1FYJ" opacity="1" fill="#6c63ff" fill-opacity="1"></use><g><use xlink:href="#c1w4Wi1FYJ" opacity="1" fill-opacity="0" stroke="#000000" stroke-width="1" stroke-opacity="0"></use></g></g><g><use xlink:href="#chynXlUjP" opacity="1" fill="#cedcfd" fill-opacity="1"></use><g><use xlink:href="#chynXlUjP" opacity="1" fill-opacity="0" stroke="#000000" stroke-width="1" stroke-opacity="0"></use></g></g><g><use xlink:href="#bLxSQwEve" opacity="1" fill="#6c63ff" fill-opacity="1"></use><g><use xlink:href="#bLxSQwEve" opacity="1" fill-opacity="0" stroke="#000000" stroke-width="1" stroke-opacity="0"></use></g></g><g><use xlink:href="#bGiJKyjCu" opacity="1" fill="#cedcfd" fill-opacity="1"></use><g><use xlink:href="#bGiJKyjCu" opacity="1" fill-opacity="0" stroke="#000000" stroke-width="1" stroke-opacity="0"></use></g></g><g><use xlink:href="#a8gZSz82gI" opacity="1" fill="url(#gradienta93rY0Ye0)"></use><g><use xlink:href="#a8gZSz82gI" opacity="1" fill-opacity="0" stroke="#000000" stroke-width="1" stroke-opacity="0"></use></g></g><g><use xlink:href="#a22MsK2R6f" opacity="1" fill="#ffffff" fill-opacity="1"></use><g><use xlink:href="#a22MsK2R6f" opacity="1" fill-opacity="0" stroke="#000000" stroke-width="1" stroke-opacity="0"></use></g></g><g><use xlink:href="#clLFqgU28" opacity="1" fill="#000000" fill-opacity="1"></use><g><use xlink:href="#clLFqgU28" opacity="1" fill-opacity="0" stroke="#000000" stroke-width="1" stroke-opacity="0"></use></g></g><g><use xlink:href="#a2urJf7gAb" opacity="1" fill="#ffffff" fill-opacity="1"></use><g><use xlink:href="#a2urJf7gAb" opacity="1" fill-opacity="0" stroke="#000000" stroke-width="1" stroke-opacity="0"></use></g></g><g><use xlink:href="#bhK1i4HyD" opacity="1" fill="#ffffff" fill-opacity="1"></use><g><use xlink:href="#bhK1i4HyD" opacity="1" fill-opacity="0" stroke="#000000" stroke-width="1" stroke-opacity="0"></use></g></g><g><use xlink:href="#c2ig7RFqd" opacity="1" fill="#000000" fill-opacity="1"></use><g><use xlink:href="#c2ig7RFqd" opacity="1" fill-opacity="0" stroke="#000000" stroke-width="1" stroke-opacity="0"></use></g></g><g><use xlink:href="#jgukNdY8a" opacity="1" fill="#000000" fill-opacity="1"></use><g><use xlink:href="#jgukNdY8a" opacity="1" fill-opacity="0" stroke="#000000" stroke-width="1" stroke-opacity="0"></use></g></g><g><use xlink:href="#dXtzH5uHi" opacity="1" fill="#cf6f80" fill-opacity="1"></use><g><use xlink:href="#dXtzH5uHi" opacity="1" fill-opacity="0" stroke="#000000" stroke-width="1" stroke-opacity="0"></use></g></g><g><use xlink:href="#bx8FLpJ3D" opacity="1" fill="#000000" fill-opacity="1"></use><g><use xlink:href="#bx8FLpJ3D" opacity="1" fill-opacity="0" stroke="#000000" stroke-width="1" stroke-opacity="0"></use></g></g><g><use xlink:href="#fsD4RjaaF" opacity="1" fill="#000000" fill-opacity="1"></use><g><use xlink:href="#fsD4RjaaF" opacity="1" fill-opacity="0" stroke="#000000" stroke-width="1" stroke-opacity="0"></use></g></g><g><use xlink:href="#b2eHqyyQ6z" opacity="1" fill="#0054fe" fill-opacity="1"></use><g><use xlink:href="#b2eHqyyQ6z" opacity="1" fill-opacity="0" stroke="#000000" stroke-width="1" stroke-opacity="0"></use></g></g><g><use xlink:href="#bneInYlGz" opacity="1" fill="#0054fe" fill-opacity="1"></use><g><use xlink:href="#bneInYlGz" opacity="1" fill-opacity="0" stroke="#000000" stroke-width="1" stroke-opacity="0"></use></g></g><g><use xlink:href="#jAipJ1laO" opacity="1" fill="#000000" fill-opacity="1"></use><g><use xlink:href="#jAipJ1laO" opacity="1" fill-opacity="0" stroke="#000000" stroke-width="1" stroke-opacity="0"></use></g></g><g><use xlink:href="#dawy3Xr6PA" opacity="1" fill="#cf6f80" fill-opacity="1"></use><g><use xlink:href="#dawy3Xr6PA" opacity="1" fill-opacity="0" stroke="#000000" stroke-width="1" stroke-opacity="0"></use></g></g><g><use xlink:href="#d3vEQq6RqM" opacity="1" fill="#000000" fill-opacity="1"></use><g><use xlink:href="#d3vEQq6RqM" opacity="1" fill-opacity="0" stroke="#000000" stroke-width="1" stroke-opacity="0"></use></g></g><g><use xlink:href="#g1MdnMDdMS" opacity="1" fill="#0054fe" fill-opacity="1"></use><g><use xlink:href="#g1MdnMDdMS" opacity="1" fill-opacity="0" stroke="#000000" stroke-width="1" stroke-opacity="0"></use></g></g><g><use xlink:href="#chVLZhFf2" opacity="1" fill="#000000" fill-opacity="1"></use><g><use xlink:href="#chVLZhFf2" opacity="1" fill-opacity="0" stroke="#000000" stroke-width="1" stroke-opacity="0"></use></g></g><g><use xlink:href="#b8ZLV9O2Mi" opacity="1" fill="#000000" fill-opacity="1"></use><g><use xlink:href="#b8ZLV9O2Mi" opacity="1" fill-opacity="0" stroke="#000000" stroke-width="1" stroke-opacity="0"></use></g></g><g><use xlink:href="#a5VfbuA22" opacity="1" fill="#000000" fill-opacity="1"></use><g><use xlink:href="#a5VfbuA22" opacity="1" fill-opacity="0" stroke="#000000" stroke-width="1" stroke-opacity="0"></use></g></g><g><use xlink:href="#c1h94dVUow" opacity="1" fill="#000000" fill-opacity="1"></use><g><use xlink:href="#c1h94dVUow" opacity="1" fill-opacity="0" stroke="#000000" stroke-width="1" stroke-opacity="0"></use></g></g><g><use xlink:href="#fhz08OaUD" opacity="1" fill="#ffffff" fill-opacity="1"></use><g><use xlink:href="#fhz08OaUD" opacity="1" fill-opacity="0" stroke="#000000" stroke-width="1" stroke-opacity="0"></use></g></g><g><use xlink:href="#dJnIOyJ0m" opacity="1" fill="#000000" fill-opacity="1"></use><g><use xlink:href="#dJnIOyJ0m" opacity="1" fill-opacity="0" stroke="#000000" stroke-width="1" stroke-opacity="0"></use></g></g><g><use xlink:href="#b2ZKjAuxhD" opacity="1" fill="#ffffff" fill-opacity="1"></use><g><use xlink:href="#b2ZKjAuxhD" opacity="1" fill-opacity="0" stroke="#000000" stroke-width="1" stroke-opacity="0"></use></g></g><g><use xlink:href="#d1mY3nCGtj" opacity="1" fill="#000000" fill-opacity="1"></use><g><use xlink:href="#d1mY3nCGtj" opacity="1" fill-opacity="0" stroke="#000000" stroke-width="1" stroke-opacity="0"></use></g></g><g><use xlink:href="#bsGhl0h7l" opacity="1" fill="#ffffff" fill-opacity="1"></use><g><use xlink:href="#bsGhl0h7l" opacity="1" fill-opacity="0" stroke="#000000" stroke-width="1" stroke-opacity="0"></use></g></g><g><use xlink:href="#a383IZippy" opacity="1" fill="#cf6f80" fill-opacity="1"></use><g><use xlink:href="#a383IZippy" opacity="1" fill-opacity="0" stroke="#000000" stroke-width="1" stroke-opacity="0"></use></g></g><g><use xlink:href="#a1o01UT1D" opacity="1" fill="#000000" fill-opacity="1"></use><g><use xlink:href="#a1o01UT1D" opacity="1" fill-opacity="0" stroke="#000000" stroke-width="1" stroke-opacity="0"></use></g></g><g><use xlink:href="#c2XfTy2ots" opacity="1" fill="#3f3d56" fill-opacity="1"></use><g><use xlink:href="#c2XfTy2ots" opacity="1" fill-opacity="0" stroke="#000000" stroke-width="1" stroke-opacity="0"></use></g></g><g><use xlink:href="#e3eVhahWhs" opacity="1" fill="#000000" fill-opacity="1"></use><g><use xlink:href="#e3eVhahWhs" opacity="1" fill-opacity="0" stroke="#000000" stroke-width="1" stroke-opacity="0"></use></g></g><g><use xlink:href="#bbhtiySbyL" opacity="1" fill="#3f3d56" fill-opacity="1"></use><g><use xlink:href="#bbhtiySbyL" opacity="1" fill-opacity="0" stroke="#000000" stroke-width="1" stroke-opacity="0"></use></g></g><g><use xlink:href="#aFcYx033h" opacity="1" fill="#000000" fill-opacity="1"></use><g><use xlink:href="#aFcYx033h" opacity="1" fill-opacity="0" stroke="#000000" stroke-width="1" stroke-opacity="0"></use></g></g><g><use xlink:href="#c8ssD57tN" opacity="1" fill="#3f3d56" fill-opacity="1"></use><g><use xlink:href="#c8ssD57tN" opacity="1" fill-opacity="0" stroke="#000000" stroke-width="1" stroke-opacity="0"></use></g></g><g><use xlink:href="#a31UgQEuQ" opacity="1" fill="#ffffff" fill-opacity="1"></use><g><use xlink:href="#a31UgQEuQ" opacity="1" fill-opacity="0" stroke="#000000" stroke-width="1" stroke-opacity="0"></use></g></g><g><use xlink:href="#aln906dS" opacity="1" fill="#ffffff" fill-opacity="1"></use><g><use xlink:href="#aln906dS" opacity="1" fill-opacity="0" stroke="#000000" stroke-width="1" stroke-opacity="0"></use></g></g><g><use xlink:href="#caUSJcvaUh" opacity="1" fill="#000000" fill-opacity="1"></use><g><use xlink:href="#caUSJcvaUh" opacity="1" fill-opacity="0" stroke="#000000" stroke-width="1" stroke-opacity="0"></use></g></g><g><use xlink:href="#a2TZaRcr9" opacity="1" fill="#ffffff" fill-opacity="1"></use><g><use xlink:href="#a2TZaRcr9" opacity="1" fill-opacity="0" stroke="#000000" stroke-width="1" stroke-opacity="0"></use></g></g><g><use xlink:href="#c47GVgVe1w" opacity="1" fill="#000000" fill-opacity="1"></use><g><use xlink:href="#c47GVgVe1w" opacity="1" fill-opacity="0" stroke="#000000" stroke-width="1" stroke-opacity="0"></use></g></g><g><use xlink:href="#bcE1yyTao" opacity="1" fill="#512e4e" fill-opacity="1"></use><g><use xlink:href="#bcE1yyTao" opacity="1" fill-opacity="0" stroke="#000000" stroke-width="1" stroke-opacity="0"></use></g></g><g><use xlink:href="#c5pkO5RX" opacity="1" fill="#000000" fill-opacity="1"></use><g><use xlink:href="#c5pkO5RX" opacity="1" fill-opacity="0" stroke="#000000" stroke-width="1" stroke-opacity="0"></use></g></g><g><use xlink:href="#a1FWTktuaQ" opacity="1" fill="#ffffff" fill-opacity="1"></use><g><use xlink:href="#a1FWTktuaQ" opacity="1" fill-opacity="0" stroke="#000000" stroke-width="1" stroke-opacity="0"></use></g></g><g><use xlink:href="#a1lEsxBydg" opacity="1" fill="#000000" fill-opacity="1"></use><g><use xlink:href="#a1lEsxBydg" opacity="1" fill-opacity="0" stroke="#000000" stroke-width="1" stroke-opacity="0"></use></g></g><g><use xlink:href="#b17y3RM1f3" opacity="1" fill="#ffffff" fill-opacity="1"></use><g><use xlink:href="#b17y3RM1f3" opacity="1" fill-opacity="0" stroke="#000000" stroke-width="1" stroke-opacity="0"></use></g></g><g><use xlink:href="#aKrQFe94s" opacity="1" fill="#cf6f80" fill-opacity="1"></use><g><use xlink:href="#aKrQFe94s" opacity="1" fill-opacity="0" stroke="#000000" stroke-width="1" stroke-opacity="0"></use></g></g><g><use xlink:href="#a34nqGh9Ql" opacity="1" fill="#000000" fill-opacity="1"></use><g><use xlink:href="#a34nqGh9Ql" opacity="1" fill-opacity="0" stroke="#000000" stroke-width="1" stroke-opacity="0"></use></g></g><g><use xlink:href="#a9BwNTrOo" opacity="1" fill="#ffffff" fill-opacity="1"></use><g><use xlink:href="#a9BwNTrOo" opacity="1" fill-opacity="0" stroke="#000000" stroke-width="1" stroke-opacity="0"></use></g></g><g><use xlink:href="#b1HGYvbh7q" opacity="1" fill="#000000" fill-opacity="1"></use><g><use xlink:href="#b1HGYvbh7q" opacity="1" fill-opacity="0" stroke="#000000" stroke-width="1" stroke-opacity="0"></use></g></g><g><use xlink:href="#a1wFqGu5Dm" opacity="1" fill="#000000" fill-opacity="1"></use><g><use xlink:href="#a1wFqGu5Dm" opacity="1" fill-opacity="0" stroke="#000000" stroke-width="1" stroke-opacity="0"></use></g></g><g><use xlink:href="#d1csPQIHmc" opacity="1" fill="#000000" fill-opacity="1"></use><g><use xlink:href="#d1csPQIHmc" opacity="1" fill-opacity="0" stroke="#000000" stroke-width="1" stroke-opacity="0"></use></g></g><g><use xlink:href="#bb75t5kSA" opacity="1" fill="#000000" fill-opacity="1"></use><g><use xlink:href="#bb75t5kSA" opacity="1" fill-opacity="0" stroke="#000000" stroke-width="1" stroke-opacity="0"></use></g></g><g><use xlink:href="#c6m5URxMg" opacity="1" fill="#000000" fill-opacity="1"></use><g><use xlink:href="#c6m5URxMg" opacity="1" fill-opacity="0" stroke="#000000" stroke-width="1" stroke-opacity="0"></use></g></g></g></g></svg>